<?xml version="1.0" encoding="utf-8"?>
<!-- Generator: Adobe Illustrator 18.1.1, SVG Export Plug-In . SVG Version: 6.00 Build 0)  -->
<svg version="1.1" id="Layer_1" xmlns="http://www.w3.org/2000/svg" xmlns:xlink="http://www.w3.org/1999/xlink" x="0px" y="0px"
	 viewBox="0 0 7663.6 7301" enable-background="new 0 0 7663.6 7301" xml:space="preserve">
<g id="Like_Button" display="none">
	<path display="inline" fill="#FAA31A" d="M5843,183c-117.8-11.5-227.9-17.1-331.3-17.1c-828.2,0-1225.2,357.9-1680,899.8
		c-454.8-541.9-852-899.8-1680.1-899.8c-103.4,0-213.5,5.6-331.3,17.1C1103.7,253,275,909.1,174.1,2166.5v418.5
		c94,1203.4,1002.4,2687.8,3657.6,4550.2c2655.1-1862.4,3563.8-3346.8,3657.8-4550.2v-418.5C7388.4,909.1,6559.7,253,5843,183z"/>
</g>
<g id="Star" display="none">
	<polygon display="inline" fill="#FAA31A" points="3866.7,399.5 4930.7,2555.4 7309.8,2901.1 5588.2,4579.2 5994.7,6948.8 
		3866.7,5830 1738.7,6948.8 2145.1,4579.2 423.5,2901.1 2802.7,2555.4 	"/>
</g>
<g id="Follow">
	<g>
		<path fill="#FAA31A" d="M2656.8,2173.9h292.6v-369.1c0-384.1,48.8-689.5,146.3-916.1c97.5-226.6,262.6-391.6,495.2-495.2
			c232.5-103.5,551.5-155.3,956.6-155.3c717.3,0,1075.9,175.6,1075.9,526.7c0,114.1-37.5,211.6-112.5,292.6
			c-75.1,81-163.6,121.5-265.6,121.5c-48,0-130.5-9-247.6-27c-117-18-216.1-27-297.1-27c-222.1,0-364.7,65.3-427.7,195.8
			c-63,130.6-94.5,317.4-94.5,560.5v292.6h301.6c468.2,0,702.3,141.1,702.3,423.2c0,201.1-62.3,328.6-186.8,382.6
			c-124.6,54-296.4,81-515.5,81h-301.6v3254.7c0,243.1-57.9,428.4-173.3,556c-115.6,127.5-264.9,191.3-448,191.3
			c-174.1,0-318.9-63.8-434.4-191.3c-115.6-127.5-173.3-312.9-173.3-556V3060.8h-337.6c-183.1,0-324.1-41.2-423.2-123.8
			c-99-82.5-148.5-189.8-148.5-321.9C2040.1,2321,2245.7,2173.9,2656.8,2173.9z"/>
	</g>
</g>
</svg>
