<?xml version="1.0" encoding="utf-8"?>
<!-- Generator: Adobe Illustrator 18.1.1, SVG Export Plug-In . SVG Version: 6.00 Build 0)  -->
<svg version="1.1" id="Layer_1" xmlns="http://www.w3.org/2000/svg" xmlns:xlink="http://www.w3.org/1999/xlink" x="0px" y="0px"
	 viewBox="0 0 1024 1024" enable-background="new 0 0 1024 1024" xml:space="preserve">
<symbol  id="Bars" viewBox="-483.9 -362.7 967.7 725.4">
	<g id="Layer_4_3_">
		<path fill="#FFA400" d="M422.1,239.7h-844.5c-33.8,0-61.5,27.7-61.5,61.5l0,0c0,33.8,27.7,61.5,61.5,61.5h844.5
			c33.8,0,61.5-27.7,61.5-61.5l0,0C483.6,267.4,455.9,239.7,422.1,239.7z"/>
		<path fill="#FFA400" d="M422.2-58.2h-844.4c-33.8,0-61.5,27.7-61.5,61.5l0,0c0,33.8,27.7,61.5,61.5,61.5h844.5
			c33.8,0,61.5-27.7,61.5-61.5l0,0C483.7-30.5,456.1-58.2,422.2-58.2z"/>
		<path fill="#FFA400" d="M422.2-362.7h-844.4c-33.8,0-61.5,27.7-61.5,61.5l0,0c0,33.8,27.7,61.5,61.5,61.5h844.5
			c33.8,0,61.5-27.7,61.5-61.5l0,0C483.7-335,456.1-362.7,422.2-362.7z"/>
	</g>
</symbol>
<symbol  id="Mail" viewBox="-478.5 -479.2 957 958.5">
	<g id="Layer_3_3_">
		<g>
			<path fill="#FFA400" d="M-0.1,19.7l473.2,410.9c-11.3,28.4-39.1,48.6-71.4,48.6h-803.4c-35,0-64.8-23.8-73.9-56L-0.1,19.7z"/>
			<g>
				<polygon fill="#FFA400" points="478.5,-356.1 478.5,395.5 79.6,49.2 				"/>
				<polygon fill="#FFA400" points="-80.8,48.9 -478.5,386.3 -478.5,-349.8 				"/>
				<path fill="#FFA400" d="M58.4,30.8L0.1-19.8l-59.6,50.5l-419-422.2v-11c0-42.3,34.6-76.8,76.8-76.8h803.3
					c42.3,0,76.8,34.6,76.8,76.8v4.5L58.4,30.8z"/>
			</g>
		</g>
	</g>
</symbol>
<symbol  id="Pencil" viewBox="-422.5 -422.5 845.1 845.1">
	<path fill="#FAA31A" d="M412.9,305.5l-68.1-68.1L237.5,344.8l68.1,68.1c12.9,12.9,33.9,12.9,46.8,0l60.6-60.6
		C425.8,339.4,425.8,318.4,412.9,305.5z M215.7,323.1l107.4-107.4l12.5,12.5L228.2,335.6L215.7,323.1z M-328.2-220.8l22.8-22.8
		l513.5,513.5l9.2-9.2l-513.5-513.5l40.2-40.2l513.5,513.5l9.2-9.2l-513.5-513.5l25.9-25.9l534.7,534.7L206.5,313.9L-328.2-220.8z
		 M-337.4-230.1l-59-128l38.4-38.4l128,59L-337.4-230.1z M-402.2-370.6l-19.7-42.7c-2.5-5.4,3.1-11,8.5-8.5l42.7,19.7L-402.2-370.6z
		"/>
</symbol>
<symbol  id="Ribon" viewBox="-325.5 -467 651 934">
	<g>
		<g>
			<polygon fill="#FFA400" points="192.7,262.4 123.8,277.7 108.9,346.8 41.5,325.6 -5.9,378 -53.7,325.9 -120.9,347.6 
				-136.2,278.6 -205.3,263.8 -184.1,196.4 -236.5,149 -184.4,101.2 -206.1,34 -137.1,18.6 -122.3,-50.4 -54.9,-29.2 -7.5,-81.6 
				40.3,-29.6 107.5,-51.2 122.9,17.7 191.9,32.6 170.7,100 223.1,147.4 171.1,195.2 			"/>
			<path fill="#FFA400" d="M257.4,148.2l54.8,85.4L222,280.2l4.7,101.4l-101.4-4.7L78.7,467l-85.4-54.8L-92.1,467l-46.6-90.1
				l-101.4,4.7l4.7-101.4l-90.1-46.6l54.8-85.4l-54.8-85.4l90.1-46.6l-4.7-101.4l101.4,4.7l46.6-90.1l85.4,54.8l85.4-54.8l46.6,90.1
				l101.4-4.7L222,16.2l90.1,46.6L257.4,148.2z M230.3,139.4l-47.3-42.8l19.1-60.8l3.5-11.3l-11.5-2.5L131.9,8.7L118-53.6l-2.6-11.5
				l-11.2,3.6L43.5-41.9l-43.1-47l-8-8.7l-7.9,8.8l-42.8,47.3l-60.8-19.1l-11.3-3.5l-2.5,11.5l-13.4,62.3l-62.2,13.8L-220,26
				l3.6,11.2l19.6,60.7l-47,43.1l-8.7,8l8.8,7.9l47.3,42.8l-19.1,60.8l-3.5,11.3l11.5,2.5l62.3,13.4l13.8,62.2l2.6,11.5l11.2-3.6
				l60.7-19.6l43.1,47l8,8.7l7.9-8.8L44.9,338l60.8,19.1l11.3,3.5l2.5-11.5l13.4-62.3l62.2-13.8l11.5-2.6l-3.6-11.2l-19.6-60.7
				l47-43.1l8.7-8L230.3,139.4z"/>
		</g>
		<polygon fill="#FFA400" points="131.7,-91.6 88.3,-175.6 82.9,-186.1 72.9,-179.7 -6.7,-128.6 -14.5,-133.7 109,-467 179.9,-326 
			325.5,-386.8 217.6,-95.5 		"/>
		<polygon fill="#FFA400" points="-86.3,-179.7 -96.3,-186.1 -101.7,-175.6 -145.1,-91.6 -203.1,-94.3 -311.6,-386.8 -165.9,-326 
			-95.1,-467 1.2,-207.2 -23.8,-139.6 		"/>
	</g>
</symbol>
<symbol  id="Share" viewBox="-432.8 -472 865.5 943.9">
	<g id="share_3_">
		<polygon fill="#FFA400" points="432.7,340.9 258.2,471.9 258.2,400.9 -256.4,400.9 -256.4,-187.1 -131.6,-187.1 -131.6,280.1 
			259.7,280.1 259.7,204.4 		"/>
		<path fill="#FFA400" d="M310,165.4h-418.8v-55.5h412.7c18,0,32.8-14.8,32.8-32.8v-460.9c0-18-14.8-32.8-32.8-32.8H-352
			c-18,0-32.8,14.8-32.8,32.8V77.1c0,18,14.8,32.8,32.8,32.8h73.7v55.5h-79.8c-41.1,0-74.7-33.6-74.7-74.7v-488
			c0-41.1,33.6-74.7,74.7-74.7h668c41.1,0,74.7,33.6,74.7,74.7v488C384.7,131.8,351.1,165.4,310,165.4z"/>
	</g>
</symbol>
<symbol  id="clock" viewBox="-449.1 -449.1 898.2 898.2">
	<g id="Recent_3_">
		<g>
			<path fill="#FAA31A" d="M0,449.1C-248,449.1-449.1,248-449.1,0S-248-449.1,0-449.1S449.1-248,449.1,0S248,449.1,0,449.1z
				 M367-155c-10-23.6-22.3-46.3-36.7-67.6c-14.3-21.1-30.6-40.9-48.7-59s-37.9-34.4-59-48.7c-21.3-14.4-44-26.7-67.6-36.7
				c-24-10.2-49.1-18-74.7-23.2c-26.2-5.4-53.3-8.1-80.3-8.1s-54.1,2.7-80.3,8.1c-25.5,5.2-50.7,13-74.7,23.2
				c-23.6,10-46.3,22.3-67.6,36.7c-21.1,14.3-40.9,30.6-59,48.7s-34.4,37.9-48.7,59c-14.4,21.3-26.7,44-36.7,67.6
				c-10.2,24-18,49.1-23.2,74.7c-5.4,26.2-8.1,53.3-8.1,80.3c0,27.1,2.7,54.1,8.1,80.3c5.2,25.5,13,50.7,23.2,74.7
				c10,23.6,22.3,46.3,36.7,67.6c14.3,21.1,30.6,40.9,48.7,59s37.9,34.4,59,48.7c21.3,14.4,44,26.7,67.6,36.7
				c24,10.2,49.1,18,74.7,23.2c26.2,5.4,53.3,8.1,80.3,8.1c27.1,0,54.1-2.7,80.3-8.1c25.5-5.2,50.7-13,74.7-23.2
				c23.6-10,46.3-22.3,67.6-36.7c21.1-14.3,40.9-30.6,59-48.7s34.4-37.9,48.7-59c14.4-21.3,26.7-44,36.7-67.6
				c10.2-24,18-49.1,23.2-74.7c5.4-26.2,8.1-53.3,8.1-80.3c0-27.1-2.7-54.1-8.1-80.3C385-105.9,377.2-131,367-155z"/>
			<path fill="#FAA31A" d="M0,250.8c-6.7,0-13.2-2.7-18-7.4c-4.8-4.8-7.4-11.2-7.4-18V4.6l-63-167.9c-2.4-6.3-2.1-13.3,0.7-19.4
				c2.8-6.1,7.9-10.9,14.2-13.3c2.9-1.1,5.9-1.6,8.9-1.6c3.6,0,7.2,0.8,10.5,2.3c6.1,2.8,10.9,7.9,13.3,14.2L23.8-8.9
				c0,0.1,0,0.1,0.1,0.2c0,0.1,0.1,0.2,0.1,0.3s0.1,0.2,0.1,0.3s0.1,0.2,0.1,0.3s0.1,0.2,0.1,0.3s0.1,0.2,0.1,0.3s0.1,0.2,0.1,0.3
				s0.1,0.2,0.1,0.3s0.1,0.2,0.1,0.3s0.1,0.2,0.1,0.3s0.1,0.2,0.1,0.3s0,0.2,0.1,0.3c0,0.1,0,0.2,0.1,0.3c0,0.1,0,0.2,0.1,0.3
				c0,0.1,0,0.2,0.1,0.3c0,0.1,0,0.2,0.1,0.3c0,0.1,0,0.2,0.1,0.3c0,0.1,0,0.2,0,0.3s0,0.2,0,0.3s0,0.2,0,0.3s0,0.2,0,0.3
				s0,0.2,0,0.3s0,0.2,0,0.3s0,0.2,0,0.3s0,0.2,0,0.3s0,0.2,0,0.3s0,0.2,0,0.3s0,0.2,0,0.3s0,0.2,0,0.3s0,0.1,0,0.2v225.5
				c0,6.7-2.7,13.2-7.4,18C13.2,248.1,6.7,250.8,0,250.8z"/>
			<path fill="#FAA31A" d="M-303.3-18c4.8,4.8,7.4,11.2,7.4,18c0,6.7-2.7,13.2-7.4,18c-4.8,4.8-11.2,7.4-18,7.4h-39.2
				c-6.7,0-13.2-2.7-18-7.4c-4.8-4.8-7.4-11.2-7.4-18c0-6.7,2.7-13.2,7.4-18c4.8-4.8,11.2-7.4,18-7.4h39.2
				C-314.6-25.4-308.1-22.7-303.3-18z"/>
			<path fill="#FAA31A" d="M-271.7-136.1c-6.5,1.7-13.4,0.8-19.3-2.5l-34-19.6c-5.8-3.4-10.1-8.9-11.8-15.4
				c-1.7-6.5-0.8-13.4,2.5-19.3c3.4-5.8,8.9-10.1,15.4-11.8c2.2-0.6,4.4-0.9,6.6-0.9c4.4,0,8.8,1.1,12.7,3.4l34,19.6
				c5.8,3.4,10.1,8.9,11.8,15.4c1.7,6.5,0.8,13.4-2.5,19.3C-259.6-142.1-265.2-137.9-271.7-136.1z"/>
			<path fill="#FAA31A" d="M-148-256.3c-5.8,3.4-12.8,4.3-19.3,2.5c-6.5-1.7-12.1-6-15.4-11.8l-19.6-34c-3.4-5.8-4.3-12.8-2.5-19.3
				c1.7-6.5,6-12.1,11.8-15.4c3.9-2.2,8.3-3.4,12.7-3.4c2.2,0,4.4,0.3,6.6,0.9c6.5,1.7,12.1,6,15.4,11.8l19.6,34
				c3.4,5.8,4.3,12.8,2.5,19.3C-137.9-265.2-142.1-259.6-148-256.3z"/>
			<path fill="#FAA31A" d="M0-295.9c-6.7,0-13.2-2.7-18-7.4c-4.8-4.8-7.4-11.2-7.4-18v-39.2c0-6.7,2.7-13.2,7.4-18
				c4.8-4.8,11.2-7.4,18-7.4c6.7,0,13.2,2.7,18,7.4c4.8,4.8,7.4,11.2,7.4,18v39.2c0,6.7-2.7,13.2-7.4,18S6.7-295.9,0-295.9z"/>
			<path fill="#FAA31A" d="M182.6-265.6c-3.4,5.8-8.9,10.1-15.4,11.8s-13.4,0.8-19.3-2.5c-5.8-3.4-10.1-8.9-11.8-15.4
				s-0.8-13.4,2.5-19.3l19.6-34c3.4-5.8,8.9-10.1,15.4-11.8c2.2-0.6,4.4-0.9,6.6-0.9c4.4,0,8.8,1.1,12.7,3.4
				c5.8,3.4,10.1,8.9,11.8,15.4s0.8,13.4-2.5,19.3L182.6-265.6z"/>
			<path fill="#FAA31A" d="M324.9-158.3l-34,19.6c-5.8,3.4-12.8,4.3-19.3,2.5c-6.5-1.7-12.1-6-15.4-11.8c-3.4-5.8-4.3-12.8-2.5-19.3
				c1.7-6.5,6-12.1,11.8-15.4l34-19.6c3.9-2.2,8.3-3.4,12.7-3.4c2.2,0,4.4,0.3,6.6,0.9c6.5,1.7,12.1,6,15.4,11.8
				c3.4,5.8,4.3,12.8,2.5,19.3C335-167.2,330.8-161.7,324.9-158.3z"/>
			<path fill="#FAA31A" d="M360.5,25.4h-39.2c-6.7,0-13.2-2.7-18-7.4c-4.8-4.8-7.4-11.2-7.4-18c0-6.7,2.7-13.2,7.4-18
				c4.8-4.8,11.2-7.4,18-7.4h39.2c6.7,0,13.2,2.7,18,7.4s7.4,11.2,7.4,18c0,6.7-2.7,13.2-7.4,18C373.7,22.7,367.3,25.4,360.5,25.4z"
				/>
			<path fill="#FAA31A" d="M271.7,136.1c2.2-0.6,4.4-0.9,6.6-0.9c4.4,0,8.8,1.1,12.7,3.4l34,19.6c5.8,3.4,10.1,8.9,11.8,15.4
				s0.8,13.4-2.5,19.3c-3.4,5.8-8.9,10.1-15.4,11.8c-6.5,1.7-13.4,0.8-19.3-2.5l-34-19.6c-5.8-3.4-10.1-8.9-11.8-15.4
				s-0.8-13.4,2.5-19.3C259.6,142.1,265.2,137.9,271.7,136.1z"/>
			<path fill="#FAA31A" d="M193,334.2c-5.8,3.4-12.8,4.3-19.3,2.5c-6.5-1.8-12.1-6-15.4-11.8l-19.6-34c-3.4-5.8-4.3-12.8-2.5-19.3
				c1.7-6.5,6-12.1,11.8-15.4c3.9-2.2,8.3-3.4,12.7-3.4c2.2,0,4.4,0.3,6.6,0.9c6.5,1.7,12.1,6,15.4,11.8l19.6,34
				c3.4,5.8,4.3,12.8,2.5,19.3S198.8,330.9,193,334.2z"/>
			<path fill="#FAA31A" d="M0,385.9c-6.7,0-13.2-2.7-18-7.4c-4.8-4.8-7.4-11.2-7.4-18v-39.2c0-6.7,2.7-13.2,7.4-18
				c4.8-4.8,11.2-7.4,18-7.4c6.7,0,13.2,2.7,18,7.4c4.8,4.8,7.4,11.2,7.4,18v39.2c0,6.7-2.7,13.2-7.4,18
				C13.2,383.2,6.7,385.9,0,385.9z"/>
			<path fill="#FAA31A" d="M-158.3,324.9c-3.4,5.8-8.9,10.1-15.4,11.8c-6.5,1.7-13.4,0.8-19.3-2.5c-5.8-3.4-10.1-8.9-11.8-15.4
				s-0.8-13.4,2.5-19.3l19.6-34c3.4-5.8,8.9-10.1,15.4-11.8c2.2-0.6,4.4-0.9,6.6-0.9c4.4,0,8.8,1.1,12.7,3.4
				c5.8,3.4,10.1,8.9,11.8,15.4c1.7,6.5,0.8,13.4-2.5,19.3L-158.3,324.9z"/>
			<path fill="#FAA31A" d="M-265.6,182.6l-34,19.6c-5.8,3.4-12.8,4.3-19.3,2.5c-6.5-1.7-12.1-6-15.4-11.8
				c-3.4-5.8-4.3-12.8-2.5-19.3c1.7-6.5,6-12.1,11.8-15.4l34-19.6c3.9-2.2,8.3-3.4,12.7-3.4c2.2,0,4.4,0.3,6.6,0.9
				c6.5,1.7,12.1,6,15.4,11.8c3.4,5.8,4.3,12.8,2.5,19.3C-255.5,173.7-259.7,179.3-265.6,182.6z"/>
		</g>
	</g>
</symbol>
<symbol  id="drive" viewBox="-405.7 -174 811.5 348">
	<g>
		<path fill="#FFA400" d="M203.7,120v-240h202v240H203.7z M377.2-75h-147v20h147V-75z M377.2,41h-147v20h147V41z"/>
		<g>
			<polygon fill="#FFA400" points="10.9,-50.5 51.1,-50.5 51.1,-11.1 10.9,-11.1 			"/>
			<polygon fill="#FFA400" points="10.9,17.3 51.1,17.3 51.1,48.3 10.9,48.3 			"/>
			<path fill="#FFA400" d="M171.7,174h-565.5c-6.6,0-12-5.4-12-12v-324c0-6.6,5.4-12,12-12h565.5c6.6,0,12,5.4,12,12v324
				C183.7,168.6,178.3,174,171.7,174z M-321.5-84V84.5h45.6l0.5-133.1h40.8V83.7h0.8v0.8h45.6l0.3-168.5H-321.5z M-44.7-66.4
				c-2.7-11.3-10.7-17-24-17l-34.8-0.5v-0.3l-75.9-0.5l13.2,37h72.9L-93-17h-62.4c-13.3,0-21.3,5.7-24,17c0,2.9,0,5.9,0.1,9.2
				c0.1,3.2,0.1,6.3,0.1,9.2h-0.3v46.7c1.4,7,4.1,12.1,8.1,15.1c4,3.1,9.3,4.6,15.9,4.6h110.2c-2.7-7.9-5.1-14.8-7.3-20.7
				c-2.2-5.9-4.1-11.1-5.7-15.8v0.3h-27v-0.3h-45.9v-30l62.1,0.3c6.7,0,12-1.5,15.9-4.6c4-3.1,6.7-8.1,8.1-15.1c0-0.4,0-0.8-0.1-1.2
				c-0.1-0.5-0.1-0.9-0.1-1.2h0.5V-66.4z M99.5,17.3c-1.4-4.1-3.4-7.2-5.8-9c-2.4-1.9-5-3.6-7.7-5v-5.9c2.7,0,4.9-0.7,6.8-2
				c1.8-1.4,4-3.5,6.8-6.3v-56.2c-2.7-11.3-10.7-17-24-17H-34.7V84.5l110.2,0.3c6.7,0,12-1.5,15.9-4.6c4-3.1,6.7-8.1,8.1-15.1V17.3z
				"/>
		</g>
	</g>
</symbol>
<symbol  id="facebook" viewBox="-239.4 -455.9 478.7 911.9">
	<g id="Follow_3_">
		<g>
			<path fill="#FAA31A" d="M-157,197.3h39.1v49.3c0,51.3,6.5,92.1,19.5,122.4c13,30.3,35.1,52.3,66.2,66.2
				C-1.1,449,41.5,456,95.6,456c95.8,0,143.8-23.5,143.8-70.4c0-15.2-5-28.3-15-39.1c-10-10.8-21.9-16.2-35.5-16.2
				c-6.4,0-17.4,1.2-33.1,3.6c-15.6,2.4-28.9,3.6-39.7,3.6c-29.7,0-48.7-8.7-57.1-26.2c-8.4-17.5-12.6-42.4-12.6-74.9v-39.1h40.3
				c62.6,0,93.8-18.9,93.8-56.5c0-26.9-8.3-43.9-25-51.1c-16.6-7.2-39.6-10.8-68.9-10.8H46.3V-356c0-32.5-7.7-57.2-23.2-74.3
				c-15.4-17-35.4-25.6-59.9-25.6c-23.3,0-42.6,8.5-58,25.6c-15.4,17-23.2,41.8-23.2,74.3V78.8h-45c-24.5,0-43.3,5.5-56.5,16.5
				s-19.8,25.4-19.8,43C-239.4,177.6-211.9,197.3-157,197.3z"/>
		</g>
	</g>
</symbol>
<symbol  id="headphones" viewBox="-459 -355 918 710">
	<path fill="#FAA31A" d="M356.2-24.8C348,66.9,298.5,355,2.1,355c-294.6,0-338.7-284.4-345.3-378.1c-49.4-19-107.2-62.4-107.2-161.5
		c0-111.7,73.5-153.3,125.6-168.8c25.3-7.5,50.7,11.5,50.7,37.9v260.6c0,14.1-7.3,26.1-17.9,33.1c9.5,86.5,57.6,325.3,300.4,325.3
		C251.4,303.6,293,64.2,300.2-22c-10.4-7-17.5-18.9-17.5-32.8v-260.6c0-26.4,25.4-45.4,50.7-37.9C385.5-337.9,459-296.3,459-184.6
		C459-88.4,404.6-44.7,356.2-24.8z"/>
	<path fill="#FAA31A" d="M-447-105.8h1.1c5.8,14,13.4,26.8,22.7,38.3c0.5,0.6,1,1.3,1.6,1.9H-447c-6.6,0-12-5.4-12-12v-16.2
		C-459-100.4-453.6-105.8-447-105.8z"/>
</symbol>
<symbol  id="heart" viewBox="-488.8 -465.6 977.5 931.2">
	<g id="Heart_3_">
		<path fill="#FAA31A" d="M268.7,463.3c-15.7,1.5-30.5,2.3-44.3,2.3c-110.7,0-163.7-47.8-224.5-120.2
			c-60.7,72.4-113.8,120.2-224.4,120.2c-13.8,0-28.5-0.7-44.3-2.3c-95.8-9.4-206.5-97-220-265v-55.9
			c12.6-160.8,133.9-359.1,488.7-608c354.8,248.9,476.2,447.2,488.8,608v55.9C475.2,366.3,364.5,454,268.7,463.3z"/>
	</g>
</symbol>
<symbol  id="home" viewBox="-479.5 -446.4 959 892.9">
	<g id="home_3_">
		<g>
			<path fill="#FAA31A" d="M474.9,76.1L45.9,430c-26.6,21.9-65,22-91.6,0L-475,76.6c-5.6-4.6-6.1-13.1-1-18.4l15.2-15.7
				c4.6-4.7,12.1-5.1,17.1-0.8l99.7,85.2c2.2,1.9,5.7,0.2,5.5-2.7c-0.1-2.2-0.2-4.5-0.2-6.7v-446.7c0-64.4,52.7-117.2,117.2-117.2
				h443.3c64.4,0,117.2,52.7,117.2,117.2v446.6v0.1c0,2.8,3.2,4.4,5.4,2.6l101.5-78.9c5.2-4.1,12.7-3.4,17.1,1.6l13.4,15.4
				C481,63.5,480.3,71.6,474.9,76.1z M111.4-412.1c0-14.2-11.7-25.9-25.9-25.9H-85.7c-14.2,0-25.9,11.7-25.9,25.9v386.2
				C-111.6-11.7-99.9,0-85.7,0H85.5c14.2,0,25.9-11.7,25.9-25.9V-412.1z"/>
			<path fill="#FAA31A" d="M-76.7-190.8c10.8,0,19.6-8.8,19.6-19.6S-65.8-230-76.7-230s-19.6,8.8-19.6,19.6S-87.5-190.8-76.7-190.8z
				"/>
		</g>
	</g>
</symbol>
<symbol  id="image" viewBox="-435.2 -435.2 870.4 870.4">
	<g id="Image_6_">
		<line fill="none" x1="-31.8" y1="353.4" x2="-31.8" y2="321.6"/>
		<g id="Image_7_">
			<path fill="#FAA31A" stroke="#000000" stroke-miterlimit="10" d="M-31.8,312c-74.1,0-134.2-60.1-134.2-134.2
				c0-40.1,17.6-76.1,45.5-100.7l64.4,70.7l37.5-38.5L72,262.6C47.5,292.8,10.1,312-31.8,312z"/>
			<path fill="#FAA31A" stroke="#000000" stroke-miterlimit="10" d="M335.7,434.7h-671.3c-54.5,0-99.1-44.6-99.1-99.1v-671.2
				c0-54.5,44.6-99.1,99.1-99.1h671.2c54.5,0,99.1,44.6,99.1,99.1v671.3C434.7,390.2,390.2,434.7,335.7,434.7z M377-2L111.9,297.1
				L-15.4,81.9l-40.3,41.3L-174.5-7.2l-52,84.8L-376.9-81.7v402.4c0,31,25.3,56.3,56.3,56.3h641.3c31,0,56.3-25.3,56.3-56.3V-2z"/>
			<path fill="#FAA31A" stroke="#000000" stroke-miterlimit="10" d="M97.2,304.6c-2,0.6-4.2,0.2-5.9-1.3l-23.5-21.5
				c-2.4-2.2-2.6-6.1-0.4-8.5c2.2-2.4,6.1-2.6,8.5-0.4l23.5,21.5c2.4,2.2,2.6,6.1,0.4,8.5C99.1,303.7,98.2,304.3,97.2,304.6z"/>
			<path fill="#FAA31A" stroke="#000000" stroke-miterlimit="10" d="M7.4,311.6c3.2-1,6.5,0.8,7.5,3.9l9.6,30.3
				c1,3.2-0.8,6.5-3.9,7.5c-3.2,1-6.5-0.8-7.5-3.9l-9.6-30.3C2.5,316,4.2,312.6,7.4,311.6z"/>
			<path fill="#FAA31A" stroke="#000000" stroke-miterlimit="10" d="M-71,319.3c0.7-3.2,3.9-5.3,7.2-4.6s5.3,3.9,4.6,7.2l-6.9,31.1
				c-0.5,2.2-2.1,3.8-4.1,4.4c-1,0.3-2,0.4-3.1,0.1c-3.2-0.7-5.3-3.9-4.6-7.2L-71,319.3z"/>
			<path fill="#FAA31A" stroke="#000000" stroke-miterlimit="10" d="M-135.5,282.2c2.2-2.4,6.1-2.6,8.5-0.4c2.4,2.2,2.6,6.1,0.4,8.5
				l-21.5,23.5c-0.7,0.8-1.6,1.4-2.6,1.7c-2,0.6-4.2,0.2-5.9-1.3c-2.4-2.2-2.6-6.1-0.4-8.5L-135.5,282.2z"/>
			<path fill="#FAA31A" stroke="#000000" stroke-miterlimit="10" d="M-203.2,227.4l30.3-9.6c3.2-1,6.5,0.8,7.5,3.9
				c1,3.2-0.8,6.5-3.9,7.5l-30.3,9.6c-3.2,1-6.5-0.8-7.5-3.9S-206.4,228.4-203.2,227.4z"/>
			<path fill="#FAA31A" stroke="#000000" stroke-miterlimit="10" d="M-168.4,150.5c-0.5,2.2-2.1,3.8-4.1,4.4c-1,0.3-2,0.4-3.1,0.1
				l-31.1-6.9c-3.2-0.7-5.3-3.9-4.6-7.2c0.7-3.2,3.9-5.3,7.2-4.6l31.1,6.9C-169.8,144.1-167.7,147.3-168.4,150.5z"/>
			<path fill="#FAA31A" stroke="#000000" stroke-miterlimit="10" d="M-138.2,89c-2,0.6-4.2,0.2-5.9-1.3l-23.4-21.5
				c-2.4-2.2-2.6-6.1-0.4-8.5s6.1-2.6,8.5-0.4l23.5,21.5c2.4,2.2,2.6,6.1,0.4,8.5C-136.3,88.1-137.2,88.7-138.2,89z"/>
		</g>
	</g>
</symbol>
<symbol  id="mobile_phone" viewBox="-253.5 -447 507 894">
	<path fill="#FAA31A" d="M182.6,395.9h-365.1c-20.4,0-37-16.7-37-37v-633.2c0-20.4,16.7-37,37-37h365.1c20.4,0,37,16.7,37,37v633.2
		C219.6,379.3,202.9,395.9,182.6,395.9z"/>
	<path fill="#FAA31A" d="M191.4,447h-382.9c-34.1,0-62.1-27.9-62.1-62.1v-769.9c0-34.1,27.9-62.1,62.1-62.1h382.9
		c34.1,0,62.1,27.9,62.1,62.1v769.9C253.5,419.1,225.6,447,191.4,447z M-41.4,427.3c0,3.7,3,6.7,6.7,6.7h70.5c3.7,0,6.7-3,6.7-6.7
		V426c0-3.7-3-6.7-6.7-6.7h-70.5c-3.7,0-6.7,3-6.7,6.7V427.3z M0-426.1c-24.9,0-45.1,20.2-45.1,45.1c0,24.9,20.2,45.1,45.1,45.1
		s45.1-20.2,45.1-45.1C45.1-405.8,24.9-426.1,0-426.1z M229.6-274.3c0-25.9-21.1-47-47-47h-365.1c-25.9,0-47,21.1-47,47v633.2
		c0,25.9,21.1,47,47,47h365.1c25.9,0,47-21.1,47-47V-274.3z"/>
</symbol>
<symbol  id="plus" viewBox="-383.2 -383.2 766.5 766.5">
	<polygon fill="#FFA400" points="383.2,47 47,47 47,383.2 -47,383.2 -47,47 -383.2,47 -383.2,-47 -47,-47 -47,-383.2 47,-383.2 
		47,-47 383.2,-47 	"/>
</symbol>
<symbol  id="star" viewBox="-460.1 -437.6 920.1 875.1">
	<g id="Star_3_">
		<polygon fill="#FAA31A" points="0,437.6 142.1,149.5 460,103.3 230,-120.9 284.3,-437.5 0,-288 -284.4,-437.5 -230.1,-120.9 
			-460.1,103.3 -142.2,149.5 		"/>
	</g>
</symbol>
<use xlink:href="#heart"  width="977.5" height="931.2" x="-488.8" y="-465.6" transform="matrix(1 0 0 -1 511.95 512)" display="none" overflow="visible"/>
<use xlink:href="#star"  width="920.1" height="875.1" x="-460.1" y="-437.6" transform="matrix(1 0 0 -1 516.65 515.15)" display="none" overflow="visible"/>
<use xlink:href="#facebook"  width="478.7" height="911.9" x="-239.4" y="-455.9" transform="matrix(1 0 0 -1 512.0499 511.95)" display="none" overflow="visible"/>
<use xlink:href="#image"  width="870.4" height="870.4" x="-435.2" y="-435.2" transform="matrix(1 0 0 -1 505.2 521.2)" display="none" overflow="visible"/>
<use xlink:href="#home"  width="959" height="892.9" x="-479.5" y="-446.4" transform="matrix(1 0 0 -1 512.0565 496.5688)" display="none" overflow="visible"/>
<use xlink:href="#clock"  width="898.2" height="898.2" x="-449.1" y="-449.1" transform="matrix(1 0 0 -1 512 512)" display="none" overflow="visible"/>
<use xlink:href="#Share"  width="865.5" height="943.9" x="-432.8" y="-472" transform="matrix(1 0 0 -1 510.35 498.05)" display="none" overflow="visible"/>
<use xlink:href="#Mail"  width="957" height="958.5" x="-478.5" y="-479.2" transform="matrix(1 0 0 -1 511.1 514.85)" display="none" overflow="visible"/>
<use xlink:href="#Bars"  width="967.7" height="725.4" x="-483.9" y="-362.7" transform="matrix(1 0 0 -1 511.95 515.3)" display="none" overflow="visible"/>
<use xlink:href="#Ribon"  width="651" height="934" x="-325.5" y="-467" transform="matrix(1 0 0 -1 512 512)" display="none" overflow="visible"/>
<g id="mobile" display="none">
	
		<use xlink:href="#mobile_phone"  width="507" height="894" x="-253.5" y="-447" transform="matrix(1 0 0 -1 512 512)" display="inline" overflow="visible"/>
</g>
<use xlink:href="#headphones"  width="918" height="710" x="-459" y="-355" transform="matrix(1 0 0 -1 504.0601 512)" overflow="visible"/>
<use xlink:href="#Pencil"  width="845.1" height="845.1" x="-422.5" y="-422.5" transform="matrix(1 0 0 -1 512 512)" display="none" overflow="visible"/>
<use xlink:href="#plus"  width="766.5" height="766.5" x="-383.2" y="-383.2" transform="matrix(1 0 0 -1 512 512)" display="none" overflow="visible"/>
<use xlink:href="#drive"  width="811.5" height="348" x="-405.7" y="-174" transform="matrix(1.1442 0 0 -1.1442 523.3379 490.0547)" display="none" overflow="visible"/>
</svg>
