<?xml version="1.0" encoding="utf-8"?>
<!-- Generator: Adobe Illustrator 18.1.1, SVG Export Plug-In . SVG Version: 6.00 Build 0)  -->
<svg version="1.1" id="Layer_1" xmlns="http://www.w3.org/2000/svg" xmlns:xlink="http://www.w3.org/1999/xlink" x="0px" y="0px"
	 viewBox="0 0 7663.6 7301" enable-background="new 0 0 7663.6 7301" xml:space="preserve">
<g id="Heart" display="none">
	<path display="inline" fill="#FAA31A" d="M5843,183c-117.8-11.5-227.9-17.1-331.3-17.1c-828.2,0-1225.2,357.9-1680,899.8
		c-454.8-541.9-852-899.8-1680.1-899.8c-103.4,0-213.5,5.6-331.3,17.1C1103.7,253,275,909.1,174.1,2166.5v418.5
		c94,1203.4,1002.4,2687.8,3657.6,4550.2c2655.1-1862.4,3563.8-3346.8,3657.8-4550.2v-418.5C7388.4,909.1,6559.7,253,5843,183z"/>
</g>
<g id="Star" display="none">
	<polygon display="inline" fill="#FAA31A" points="3866.7,399.5 4930.7,2555.4 7309.8,2901.1 5588.2,4579.2 5994.7,6948.8 
		3866.7,5830 1738.7,6948.8 2145.1,4579.2 423.5,2901.1 2802.7,2555.4 	"/>
</g>
<g id="Follow" display="none">
	<g display="inline">
		<path fill="#FAA31A" d="M2656.8,2173.9h292.6v-369.1c0-384.1,48.8-689.5,146.3-916.1c97.5-226.6,262.6-391.6,495.2-495.2
			c232.5-103.5,551.5-155.3,956.6-155.3c717.3,0,1075.9,175.6,1075.9,526.7c0,114.1-37.5,211.6-112.5,292.6
			c-75.1,81-163.6,121.5-265.6,121.5c-48,0-130.5-9-247.6-27c-117-18-216.1-27-297.1-27c-222.1,0-364.7,65.3-427.7,195.8
			c-63,130.6-94.5,317.4-94.5,560.5v292.6h301.6c468.2,0,702.3,141.1,702.3,423.2c0,201.1-62.3,328.6-186.8,382.6
			c-124.6,54-296.4,81-515.5,81h-301.6v3254.7c0,243.1-57.9,428.4-173.3,556c-115.6,127.5-264.9,191.3-448,191.3
			c-174.1,0-318.9-63.8-434.4-191.3c-115.6-127.5-173.3-312.9-173.3-556V3060.8h-337.6c-183.1,0-324.1-41.2-423.2-123.8
			c-99-82.5-148.5-189.8-148.5-321.9C2040.1,2321,2245.7,2173.9,2656.8,2173.9z"/>
	</g>
</g>
<g id="Image_1_" display="none">
	<line display="inline" fill="none" x1="3542.8" y1="1074.5" x2="3542.8" y2="1312.6"/>
	<g id="Image" display="inline">
		<path fill="#FAA31A" stroke="#000000" stroke-miterlimit="10" d="M3542.8,1384c-554.5,0-1004,449.5-1004,1004
			c0,300.1,131.7,569.5,340.5,753.5l481.9-529.3l281,288.4l678.3-1147.5C4136.5,1527.8,3856.5,1384,3542.8,1384z"/>
		<path fill="#FAA31A" stroke="#000000" stroke-miterlimit="10" d="M6293,465.7H1269.4c-407.8,0-741.5,333.7-741.5,741.5v5023.6
			c0,407.8,333.7,741.5,741.5,741.5H6293c407.8,0,741.5-333.7,741.5-741.5V1207.2C7034.5,799.4,6700.9,465.7,6293,465.7z
			 M6602.4,3734.3L4618.2,1495.6l-952.4,1611.1l-301.6-309.5l-888.9,976.2l-388.9-634.9L960.1,4330.5V1319.3
			c0-231.8,189.7-421.5,421.5-421.5h4799.3c231.8,0,421.5,189.7,421.5,421.5V3734.3z"/>
		<path fill="#FAA31A" stroke="#000000" stroke-miterlimit="10" d="M4508.5,1439.7c-14.8-4.7-31.7-1.5-44,9.7l-175.6,160.8
			c-18.3,16.8-19.6,45.3-2.8,63.6c16.8,18.3,45.3,19.6,63.6,2.8l175.6-160.8c18.3-16.8,19.6-45.3,2.8-63.6
			C4522.6,1446.2,4515.8,1442,4508.5,1439.7z"/>
		<path fill="#FAA31A" stroke="#000000" stroke-miterlimit="10" d="M3836.4,1387.2c23.7,7.5,49-5.7,56.5-29.4l71.6-227.1
			c7.5-23.7-5.7-49-29.4-56.5s-49,5.7-56.5,29.4l-71.6,227.1C3799.5,1354.4,3812.7,1379.7,3836.4,1387.2z"/>
		<path fill="#FAA31A" stroke="#000000" stroke-miterlimit="10" d="M3249.8,1329.6c5.4,24.3,29.4,39.6,53.7,34.2
			c24.3-5.4,39.6-29.4,34.2-53.7l-51.5-232.5c-3.6-16.3-15.6-28.5-30.4-33.2c-7.3-2.3-15.2-2.8-23.2-1
			c-24.3,5.4-39.6,29.4-34.2,53.7L3249.8,1329.6z"/>
		<path fill="#FAA31A" stroke="#000000" stroke-miterlimit="10" d="M2766.8,1607.3c16.8,18.3,45.3,19.6,63.6,2.8
			c18.3-16.8,19.6-45.3,2.8-63.6l-160.8-175.6c-5.5-6-12.3-10.2-19.6-12.5c-14.8-4.7-31.7-1.5-44,9.7c-18.3,16.8-19.6,45.3-2.8,63.6
			L2766.8,1607.3z"/>
		<path fill="#FAA31A" stroke="#000000" stroke-miterlimit="10" d="M2260.2,2017.6l227.1,71.6c23.7,7.5,49-5.7,56.5-29.4
			c7.5-23.7-5.7-49-29.4-56.5l-227.1-71.6c-23.7-7.5-49,5.7-56.5,29.4C2223.3,1984.8,2236.5,2010.1,2260.2,2017.6z"/>
		<path fill="#FAA31A" stroke="#000000" stroke-miterlimit="10" d="M2520.3,2592.7c-3.6-16.3-15.6-28.5-30.4-33.2
			c-7.3-2.3-15.2-2.8-23.2-1l-232.5,51.5c-24.3,5.4-39.6,29.4-34.2,53.7c5.4,24.3,29.4,39.6,53.7,34.2l232.5-51.5
			C2510.4,2641,2525.7,2617,2520.3,2592.7z"/>
		<path fill="#FAA31A" stroke="#000000" stroke-miterlimit="10" d="M2746.9,3053.3c-14.8-4.7-31.7-1.5-44,9.7l-175.6,160.8
			c-18.3,16.8-19.6,45.3-2.8,63.6c16.8,18.3,45.3,19.6,63.6,2.8l175.6-160.8c18.3-16.8,19.6-45.3,2.8-63.6
			C2761,3059.8,2754.2,3055.6,2746.9,3053.3z"/>
	</g>
</g>
<g id="home">
	<g>
		<path fill="#FAA31A" d="M7386.4,2965.5l-3210.5-2648c-199.1-164.2-486.5-164.3-685.7-0.3L277.3,2962.3
			c-42.2,34.8-45.8,98.2-7.7,137.5l114.1,117.8c34.4,35.5,90.6,38.2,128.2,6l745.9-638c16.8-14.3,42.5-1.5,41.2,20.5
			c-1,16.7-1.5,33.5-1.5,50.4v3342.8c0,482.3,394.6,876.8,876.8,876.8H5492c482.3,0,876.8-394.6,876.8-876.8V2656.5
			c0-0.2,0-0.4,0-0.5c0-20.8,23.9-32.6,40.3-19.8l759.6,590.5c39.2,30.5,95.3,25.1,128-12.3l100.5-114.9
			C7432.1,3059.7,7427.1,2999.1,7386.4,2965.5z M4666.2,6619.3c0,106.5-87.2,193.7-193.7,193.7H3191.2
			c-106.5,0-193.7-87.2-193.7-193.7V3728.8c0-106.5,87.2-193.7,193.7-193.7h1281.3c106.5,0,193.7,87.2,193.7,193.7V6619.3z"/>
		<circle fill="#FAA31A" cx="3258.4" cy="5110.2" r="146.8"/>
	</g>
</g>
</svg>
