<?xml version="1.0" encoding="utf-8"?>
<!-- Generator: Adobe Illustrator 18.1.1, SVG Export Plug-In . SVG Version: 6.00 Build 0)  -->
<svg version="1.1" xmlns="http://www.w3.org/2000/svg" xmlns:xlink="http://www.w3.org/1999/xlink" x="0px" y="0px"
	 viewBox="0 0 1442 1442" enable-background="new 0 0 1442 1442" xml:space="preserve">
<g id="Layer_1">
</g>
<g id="Layer_2">
</g>
<g id="Layer_3">
</g>
<g id="Layer_4">
</g>
<g id="Layer_5">
</g>
<g id="Layer_6">
	<g>
		<path d="M1280,678h-4v41h-60c-0.1-16.2-0.9-32.3-2.5-48.3l16.9-1.8l-0.3-3l-16.9,1.8c-1.7-16.2-4.3-32.3-7.6-48.2l16.5-3.5
			l-0.6-2.9l-16.5,3.5c-1.6-7.5-3.4-14.9-5.3-22.3l38.6-10.3l-0.8-2.9l-38.6,10.3c-2-7.4-4.2-14.7-6.5-22l16-5.2l-0.9-2.9l-16,5.2
			c-4.2-12.9-9-25.7-14.3-38.2c-1-2.5-2.1-4.9-3.2-7.3l15.4-6.9l-1.2-2.7l-15.4,6.9c-6.6-14.8-13.9-29.1-21.9-43.1l51.9-29.9
			l19.5,33.8l3.5-2l-19.5-33.8l48.5-28l-2-3.5l-48.5,28l-20.5-35.5l-3.5,2l20.5,35.5l-51.9,29.9c-8.1-13.9-16.9-27.4-26.4-40.5
			l13.7-10l-1.8-2.4l-13.7,10c-9.6-13.1-19.9-25.7-30.8-37.9l12.6-11.4l-2-2.2l-12.6,11.4c-5.1-5.6-10.4-11.2-15.8-16.6l28.3-28.3
			l-2.1-2.1l-28.3,28.3c-5.4-5.4-11-10.7-16.6-15.8l11.4-12.6l-2.2-2l-11.4,12.6c-12.2-10.9-24.8-21.2-37.9-30.8l10-13.7l-2.4-1.8
			l-10,13.7c-13.1-9.5-26.6-18.2-40.5-26.4l29.9-51.9l33.8,19.5l2-3.5l-33.8-19.5l28-48.5l-3.5-2l-28,48.5l-35.5-20.5l-2,3.5
			l35.5,20.5l-29.9,51.9c-13.9-8-28.3-15.3-43.1-21.9l6.9-15.4l-2.7-1.2l-6.9,15.4c-2.4-1.1-4.9-2.1-7.3-3.2
			c-12.6-5.3-25.3-10.1-38.2-14.3l5.2-16l-2.9-0.9l-5.2,16c-7.3-2.3-14.6-4.5-22-6.5l10.3-38.6l-2.9-0.8l-10.3,38.6
			c-7.4-2-14.8-3.7-22.3-5.3l3.5-16.5l-2.9-0.6l-3.5,16.5c-15.9-3.3-32-5.8-48.2-7.6L776,212l-3-0.3l-1.8,16.9
			c-15.9-1.6-32-2.4-48.3-2.5v-60h39v-4h-39v-56h-4v56h-41v4h41v60c-16.2,0.1-32.3,0.9-48.3,2.5l-1.8-16.9l-3,0.3l1.8,16.9
			c-16.2,1.7-32.3,4.3-48.2,7.6l-3.5-16.5l-2.9,0.6l3.5,16.5c-7.5,1.6-14.9,3.4-22.3,5.3L584,203.8l-2.9,0.8l10.3,38.6
			c-7.4,2-14.7,4.2-22,6.5l-5.2-16l-2.9,0.9l5.2,16c-12.9,4.2-25.7,9-38.2,14.3c-2.5,1-4.9,2.1-7.3,3.2l-6.9-15.4l-2.7,1.2l6.9,15.4
			c-14.8,6.6-29.1,13.9-43.1,21.9l-29.9-51.9l33.8-19.5l-2-3.5l-33.8,19.5l-28-48.5l-3.5,2l28,48.5l-35.5,20.5l2,3.5l35.5-20.5
			l29.9,51.9c-13.9,8.1-27.4,16.9-40.5,26.4l-10-13.7l-2.4,1.8l10,13.7c-13.1,9.6-25.7,19.9-37.9,30.8l-11.4-12.6l-2.2,2l11.4,12.6
			c-5.6,5.1-11.2,10.4-16.6,15.8l-28.3-28.3l-2.1,2.1l28.3,28.3c-5.4,5.4-10.7,11-15.8,16.6l-12.6-11.4l-2,2.2l12.6,11.4
			c-10.9,12.2-21.2,24.8-30.8,37.9l-13.7-10l-1.8,2.4l13.7,10c-9.5,13.1-18.2,26.6-26.4,40.5l-51.9-29.9l19.5-33.8l-3.5-2
			l-19.5,33.8l-48.5-28l-2,3.5l48.5,28l-20.5,35.5l3.5,2l20.5-35.5l51.9,29.9c-8,13.9-15.3,28.3-21.9,43.1l-15.4-6.9l-1.2,2.7
			l15.4,6.9c-1.1,2.4-2.1,4.9-3.2,7.3c-5.3,12.6-10.1,25.3-14.3,38.2l-16-5.2l-0.9,2.9l16,5.2c-2.3,7.3-4.5,14.6-6.5,22l-38.6-10.3
			l-0.8,2.9l38.6,10.3c-2,7.4-3.7,14.8-5.3,22.3l-16.5-3.5l-0.6,2.9l16.5,3.5c-3.3,15.9-5.8,32-7.6,48.2L212,666l-0.3,3l16.9,1.8
			c-1.6,15.9-2.4,32-2.5,48.3h-60v-39h-4v39h-56v4h56v41h4v-41h60c0.1,16.2,0.9,32.3,2.5,48.3l-16.9,1.8l0.3,3l16.9-1.8
			c1.7,16.2,4.3,32.3,7.6,48.2l-16.5,3.5l0.6,2.9l16.5-3.5c1.6,7.5,3.4,14.9,5.3,22.3L203.8,858l0.8,2.9l38.6-10.3
			c2,7.4,4.2,14.7,6.5,22l-16,5.2l0.9,2.9l16-5.2c4.2,12.9,9,25.7,14.3,38.2c1,2.5,2.1,4.9,3.2,7.3l-15.4,6.9l1.2,2.7l15.4-6.9
			c6.6,14.8,13.9,29.1,21.9,43.1l-51.9,29.9L219.9,963l-3.5,2l19.5,33.8l-48.5,28l2,3.5l48.5-28l20.5,35.5l3.5-2l-20.5-35.5
			l51.9-29.9c8.1,13.9,16.9,27.4,26.4,40.5l-13.7,10l1.8,2.4l13.7-10c9.6,13.1,19.9,25.7,30.8,37.9l-12.6,11.4l2,2.2l12.6-11.4
			c5.1,5.6,10.4,11.2,15.8,16.6l-28.3,28.3l2.1,2.1l28.3-28.3c5.4,5.4,11,10.7,16.6,15.8l-11.4,12.6l2.2,2l11.4-12.6
			c12.2,10.9,24.8,21.2,37.9,30.8l-10,13.7l2.4,1.8l10-13.7c13.1,9.5,26.6,18.2,40.5,26.4l-29.9,51.9l-33.8-19.5l-2,3.5l33.8,19.5
			l-28,48.5l3.5,2l28-48.5l35.5,20.5l2-3.5l-35.5-20.5l29.9-51.9c13.9,8,28.3,15.3,43.1,21.9l-6.9,15.4l2.7,1.2l6.9-15.4
			c2.4,1.1,4.9,2.1,7.3,3.2c12.6,5.3,25.3,10.1,38.2,14.3l-5.2,16l2.9,0.9l5.2-16c7.3,2.3,14.6,4.5,22,6.5l-10.3,38.6l2.9,0.8
			l10.3-38.6c7.4,2,14.8,3.7,22.3,5.3l-3.5,16.5l2.9,0.6l3.5-16.5c15.9,3.3,32,5.8,48.2,7.6L666,1230l3,0.3l1.8-16.9
			c15.9,1.6,32,2.4,48.3,2.5v60h-39v4h39v56h4v-56h41v-4h-41v-60c16.2-0.1,32.3-0.9,48.3-2.5l1.8,16.9l3-0.3l-1.8-16.9
			c16.2-1.7,32.3-4.3,48.2-7.6l3.5,16.5l2.9-0.6l-3.5-16.5c7.5-1.6,14.9-3.4,22.3-5.3l10.3,38.6l2.9-0.8l-10.3-38.6
			c7.4-2,14.7-4.2,22-6.5l5.2,16l2.9-0.9l-5.2-16c12.9-4.2,25.7-9,38.2-14.3c2.5-1,4.9-2.1,7.3-3.2l6.9,15.4l2.7-1.2l-6.9-15.4
			c14.8-6.6,29.1-13.9,43.1-21.9l29.9,51.9l-33.8,19.5l2,3.5l33.8-19.5l28,48.5l3.5-2l-28-48.5l35.5-20.5l-2-3.5l-35.5,20.5
			l-29.9-51.9c13.9-8.1,27.4-16.9,40.5-26.4l10,13.7l2.4-1.8l-10-13.7c13.1-9.6,25.7-19.9,37.9-30.8l11.4,12.6l2.2-2l-11.4-12.6
			c5.6-5.1,11.2-10.4,16.6-15.8l28.3,28.3l2.1-2.1l-28.3-28.3c5.4-5.4,10.7-11,15.8-16.6l12.6,11.4l2-2.2l-12.6-11.4
			c10.9-12.2,21.2-24.8,30.8-37.9l13.7,10l1.8-2.4l-13.7-10c9.5-13.1,18.2-26.6,26.4-40.5l51.9,29.9l-19.5,33.8l3.5,2l19.5-33.8
			l48.5,28l2-3.5l-48.5-28l20.5-35.5l-3.5-2l-20.5,35.5l-51.9-29.9c8-13.9,15.3-28.3,21.9-43.1l15.4,6.9l1.2-2.7l-15.4-6.9
			c1.1-2.4,2.1-4.9,3.2-7.3c5.3-12.6,10.1-25.3,14.3-38.2l16,5.2l0.9-2.9l-16-5.2c2.3-7.3,4.5-14.6,6.5-22l38.6,10.3l0.8-2.9
			l-38.6-10.3c2-7.4,3.7-14.8,5.3-22.3l16.5,3.5l0.6-2.9l-16.5-3.5c3.3-15.9,5.8-32,7.6-48.2l16.9,1.8l0.3-3l-16.9-1.8
			c1.6-15.9,2.4-32,2.5-48.3h60v39h4v-39h56v-4h-56V678z M1084.9,391.3l-19.3,17.4l2,2.2l19.3-17.4c10.8,12.1,21,24.6,30.5,37.6
			l-21.1,15.3l1.8,2.4l21.1-15.3c9.4,13,18.1,26.3,26.1,40.1l-72.8,42.1l2,3.5l72.8-42.1c7.9,13.8,15.2,28.1,21.7,42.7l-23.9,10.6
			l1.2,2.7l23.9-10.6c1.1,2.4,2.1,4.8,3.1,7.3c5.3,12.5,10,25.1,14.2,37.9l-24.9,8.1l0.9,2.9l24.9-8.1c2.3,7.2,4.5,14.5,6.4,21.8
			L775.9,704.7l43.2-14l-0.9-2.9l-43.2,14l42.4-16.3l-1.1-2.8l-42.4,16.3l41.5-18.5l-1.2-2.7l-41.5,18.5l40.5-20.6l-1.4-2.7
			l-40.5,20.6l39.4-22.7l-1.5-2.6l-39.4,22.7l38.1-24.8l-1.6-2.5l-38.1,24.7l36.8-26.7l-1.8-2.4l-36.8,26.7l35.3-28.6l-1.9-2.3
			l-35.3,28.6l33.8-30.4l-2-2.2l-33.8,30.4l32.1-32.1l0,0l274.5-274.5C1074.6,380.3,1079.8,385.7,1084.9,391.3z M871.3,253.4
			l-8.1,24.9l2.9,0.9l8.1-24.9c12.8,4.2,25.4,8.9,37.9,14.2c2.4,1,4.9,2.1,7.3,3.2l-10.6,23.9l2.7,1.2l10.6-23.9
			c14.6,6.6,28.9,13.8,42.7,21.7l-42.1,72.8l3.5,2l42.1-72.8c13.8,8.1,27.2,16.8,40.1,26.1l-15.3,21.1l2.4,1.8l15.3-21.1
			c13,9.5,25.5,19.7,37.6,30.5l-17.4,19.3l2.2,2l17.4-19.3c5.6,5.1,11.1,10.3,16.5,15.6L760.4,679.4l30.4-33.8l-2.2-2l-30.4,33.8
			l28.6-35.3l-2.3-1.9l-28.6,35.3l26.7-36.8l-2.4-1.8l-26.7,36.8l24.8-38.1l-2.5-1.6l-24.8,38.1l22.7-39.4l-2.6-1.5l-22.7,39.4
			l20.6-40.5l-2.7-1.4l-20.6,40.5l18.5-41.5l-2.7-1.2l-18.5,41.5l16.3-42.4l-2.8-1.1L740.1,667l14-43.2l-2.9-0.9l-14,43.2L849.6,247
			C856.9,249,864.1,251.1,871.3,253.4z M617.4,240.9l5.4,25.6l2.9-0.6l-5.4-25.5c15.8-3.3,31.7-5.8,47.8-7.5l2.7,25.9l3-0.3
			l-2.7-25.9c15.8-1.6,31.8-2.4,47.8-2.5v84h4v-84c16.1,0.1,32,0.9,47.8,2.5l-2.7,25.9l3,0.3l2.7-25.9c16.1,1.7,32,4.2,47.8,7.5
			l-5.4,25.5l2.9,0.6l5.4-25.6c7.4,1.6,14.8,3.4,22.1,5.3L746.1,621.4h0l-11.8,43.9l9.4-44.5l-2.9-0.6l-9.5,44.5l7.1-44.9l-3-0.5
			l-7.1,44.9l4.8-45.2l-3-0.3l-4.8,45.2l2.4-45.4l-3-0.2l-2.4,45.4v-45.4h-3v45.4l-2.4-45.4l-3,0.2l2.4,45.4l-4.8-45.2l-3,0.3
			l4.8,45.2l-7.1-44.9l-3,0.5l7.1,44.9l-9.5-44.5l-2.9,0.6l9.4,44.5l-11.8-43.9h0L595.3,246.2C602.7,244.3,610,242.5,617.4,240.9z
			 M391.3,357.1l17.4,19.3l2.2-2l-17.4-19.3c12.1-10.8,24.6-21,37.6-30.5l15.3,21.1l2.4-1.8l-15.3-21.1c13-9.4,26.3-18.1,40.1-26.1
			l42.1,72.8l3.5-2l-42.1-72.8c13.8-7.9,28.1-15.2,42.7-21.7l10.6,23.9l2.7-1.2l-10.6-23.9c2.4-1.1,4.8-2.1,7.3-3.2
			c12.5-5.3,25.1-10,37.9-14.2l8.1,24.9l2.9-0.9l-8.1-24.9c7.2-2.3,14.5-4.5,21.8-6.4l112.3,419.1l-14-43.2l-2.9,0.9l14,43.2
			l-16.3-42.4l-2.8,1.1l16.3,42.4l-18.5-41.5l-2.7,1.2l18.5,41.5l-20.6-40.5l-2.7,1.4l20.6,40.5l-22.7-39.4l-2.6,1.5l22.7,39.4
			L666.3,634l-2.5,1.6l24.8,38.1L661.8,637l-2.4,1.8l26.7,36.8l-28.6-35.3l-2.3,1.9l28.6,35.3l-30.4-33.8l-2.2,2l30.4,33.8
			L374.9,372.8C380.3,367.4,385.7,362.2,391.3,357.1z M253.4,570.7l24.9,8.1l0.9-2.9l-24.9-8.1c4.2-12.8,8.9-25.4,14.2-37.9
			c1-2.4,2.1-4.9,3.1-7.3l23.9,10.6l1.2-2.7L273,519.9c6.6-14.6,13.8-28.9,21.7-42.7l72.8,42.1l2-3.5l-72.8-42.1
			c8.1-13.8,16.8-27.2,26.1-40.1l21.1,15.3l1.8-2.4l-21.1-15.3c9.5-13,19.7-25.5,30.5-37.6l19.3,17.4l2-2.2l-19.3-17.4
			c5.1-5.6,10.3-11.1,15.6-16.5l274.5,274.5l0,0l32.1,32.1l-33.8-30.4l-2,2.2l33.8,30.4l-35.3-28.6l-1.9,2.3l35.3,28.6l-36.8-26.7
			l-1.8,2.4l36.8,26.7l-38.1-24.7l-1.6,2.5l38.1,24.8l-39.4-22.7l-1.5,2.6l39.4,22.7L630.1,673l-1.4,2.7l40.5,20.6l-41.5-18.5
			l-1.2,2.7l41.5,18.5l-42.4-16.3l-1.1,2.8l42.4,16.3l-43.2-14l-0.9,2.9l43.2,14L247,592.4C249,585.1,251.1,577.9,253.4,570.7z
			 M240.9,824.6l25.6-5.4l-0.6-2.9l-25.5,5.4c-3.3-15.8-5.8-31.7-7.5-47.8l25.9-2.7l-0.3-3l-25.9,2.7c-1.6-15.8-2.4-31.8-2.5-47.8
			h84v-4h-84c0.1-16.1,0.9-32,2.5-47.8l25.9,2.7l0.3-3l-25.9-2.7c1.7-16.1,4.2-32,7.5-47.8l25.5,5.4l0.6-2.9l-25.6-5.4
			c1.6-7.4,3.4-14.8,5.3-22.1l375.2,100.5v0l43.9,11.8l-44.5-9.4l-0.6,2.9l44.5,9.5l-44.9-7.1l-0.5,3l44.9,7.1l-45.2-4.7l-0.3,3
			l45.2,4.7l-45.4-2.4l-0.2,3l45.4,2.4h-45.5v3h45.5l-45.4,2.4l0.2,3l45.4-2.4l-45.2,4.7l0.3,3l45.2-4.7l-44.9,7.1l0.5,3l44.9-7.1
			l-44.5,9.5l0.6,2.9l44.5-9.4l-43.9,11.8l0,0L246.2,846.7C244.3,839.3,242.5,832,240.9,824.6z M357.1,1050.7l19.3-17.4l-2-2.2
			l-19.3,17.4c-10.8-12.1-21-24.6-30.5-37.6l21.1-15.3l-1.8-2.4l-21.1,15.3c-9.4-13-18.1-26.3-26.1-40.1l72.8-42.1l-2-3.5
			l-72.8,42.1c-7.9-13.8-15.2-28.1-21.7-42.7l23.9-10.6l-1.2-2.7l-23.9,10.6c-1.1-2.4-2.1-4.8-3.1-7.3c-5.3-12.5-10-25.1-14.2-37.9
			l24.9-8.1l-0.9-2.9l-24.9,8.1c-2.3-7.2-4.5-14.5-6.4-21.8l419.1-112.3l-43.2,14l0.9,2.9l43.2-14l-42.4,16.3l1.1,2.8l42.4-16.3
			l-41.5,18.5l1.2,2.7l41.5-18.5l-40.5,20.6l1.4,2.7l40.5-20.6l-39.4,22.7l1.5,2.6l39.4-22.7L634,775.7l1.6,2.5l38.1-24.7L637,780.2
			l1.8,2.4l36.8-26.7l-35.3,28.6l1.9,2.3l35.3-28.6l-33.8,30.4l2,2.2l33.8-30.4l-32.1,32.1h0l-274.5,274.5
			C367.4,1061.7,362.2,1056.3,357.1,1050.7z M570.7,1188.6l8.1-24.9l-2.9-0.9l-8.1,24.9c-12.8-4.2-25.4-8.9-37.9-14.2
			c-2.4-1-4.9-2.1-7.3-3.2l10.6-23.9l-2.7-1.2l-10.6,23.9c-14.6-6.6-28.9-13.8-42.7-21.7l42.1-72.8l-3.5-2l-42.1,72.8
			c-13.8-8.1-27.2-16.8-40.1-26.1l15.3-21.1l-2.4-1.8l-15.3,21.1c-13-9.5-25.5-19.7-37.6-30.5l17.4-19.3l-2.2-2l-17.4,19.3
			c-5.6-5.1-11.1-10.3-16.5-15.6l306.7-306.7l-30.4,33.8l2.2,2l30.4-33.8l-28.6,35.3l2.3,1.9l28.6-35.3l-26.7,36.8l2.4,1.8
			l26.7-36.8l-24.8,38.1l2.5,1.6l24.8-38.1l-22.7,39.4l2.6,1.5l22.7-39.4L673,811.9l2.7,1.4l20.6-40.5l-18.5,41.5l2.7,1.2l18.5-41.5
			l-16.3,42.4l2.8,1.1l16.3-42.4l-14,43.2l2.9,0.9l14-43.2L592.4,1195C585.1,1193,577.9,1190.9,570.7,1188.6z M824.6,1201.1
			l-5.4-25.6l-2.9,0.6l5.4,25.5c-15.8,3.3-31.7,5.8-47.8,7.5l-2.7-25.9l-3,0.3l2.7,25.9c-15.8,1.6-31.8,2.4-47.8,2.5v-84h-4v84
			c-16.1-0.1-32-0.9-47.8-2.5l2.7-25.9l-3-0.3l-2.7,25.9c-16.1-1.7-32-4.2-47.8-7.5l5.4-25.5l-2.9-0.6l-5.4,25.6
			c-7.4-1.6-14.8-3.4-22.1-5.3l100.5-375.2h0l11.8-43.9l-9.4,44.5l2.9,0.6l9.5-44.5l-7.1,44.9l3,0.5l7.1-44.9l-4.8,45.2l3,0.3
			l4.8-45.2l-2.4,45.4l3,0.2l2.4-45.4v45.4h3v-45.4l2.4,45.4l3-0.2l-2.4-45.4l4.8,45.2l3-0.3l-4.8-45.2l7.1,44.9l3-0.5l-7.1-44.9
			l9.5,44.5l2.9-0.6l-9.4-44.5l11.8,43.9h0l100.5,375.2C839.3,1197.7,832,1199.5,824.6,1201.1z M1050.7,1084.9l-17.4-19.3l-2.2,2
			l17.4,19.3c-12.1,10.8-24.6,21-37.6,30.5l-15.3-21.1l-2.4,1.8l15.3,21.1c-13,9.4-26.3,18.1-40.1,26.1l-42.1-72.8l-3.5,2l42.1,72.8
			c-13.8,7.9-28.1,15.2-42.7,21.7l-10.6-23.9l-2.7,1.2l10.6,23.9c-2.4,1.1-4.8,2.1-7.3,3.2c-12.5,5.3-25.1,10-37.9,14.2l-8.1-24.9
			l-2.9,0.9l8.1,24.9c-7.2,2.3-14.5,4.5-21.8,6.4L737.3,775.9l14,43.2l2.9-0.9l-14-43.2l16.3,42.4l2.8-1.1l-16.3-42.4l18.5,41.5
			l2.7-1.2l-18.5-41.5l20.6,40.5l2.7-1.4l-20.6-40.5l22.7,39.4l2.6-1.5l-22.7-39.4l24.8,38.1l2.5-1.6l-24.8-38.1l26.7,36.8l2.4-1.8
			l-26.7-36.8l28.6,35.3l2.3-1.9l-28.6-35.3l30.4,33.8l2.2-2l-30.4-33.8l306.7,306.7C1061.7,1074.6,1056.3,1079.8,1050.7,1084.9z
			 M1188.6,871.3l-24.9-8.1l-0.9,2.9l24.9,8.1c-4.2,12.8-8.9,25.4-14.2,37.9c-1,2.4-2.1,4.9-3.1,7.3l-23.9-10.6l-1.2,2.7l23.9,10.6
			c-6.6,14.6-13.8,28.9-21.7,42.7l-72.8-42.1l-2,3.5l72.8,42.1c-8.1,13.8-16.8,27.2-26.1,40.1l-21.1-15.3l-1.8,2.4l21.1,15.3
			c-9.5,13-19.7,25.5-30.5,37.6l-19.3-17.4l-2,2.2l19.3,17.4c-5.1,5.6-10.3,11.1-15.6,16.5L794.7,792.6h0l-32.1-32.1l33.8,30.4
			l2-2.2l-33.8-30.4l35.3,28.6l1.9-2.3l-35.3-28.6l36.8,26.7l1.8-2.4l-36.8-26.7l38.1,24.7l1.6-2.5l-38.1-24.8l39.4,22.7l1.5-2.6
			l-39.4-22.7l40.5,20.6l1.4-2.7l-40.5-20.6l41.5,18.5l1.2-2.7l-41.5-18.5l42.4,16.3l1.1-2.8L775,740.1l43.2,14l0.9-2.9l-43.2-14
			L1195,849.6C1193,856.9,1190.9,864.1,1188.6,871.3z M1209.5,770.8l-25.9-2.7l-0.3,3l25.9,2.7c-1.7,16.1-4.2,32-7.5,47.8l-25.5-5.4
			l-0.6,2.9l25.6,5.4c-1.6,7.4-3.4,14.8-5.3,22.1L820.6,746.1l0,0l-43.9-11.8l44.5,9.4l0.6-2.9l-44.5-9.5l44.9,7.1l0.5-3l-44.9-7.1
			l45.2,4.7l0.3-3l-45.2-4.7l45.4,2.4l0.2-3l-45.4-2.4h45.5v-3h-45.5l45.4-2.4l-0.2-3l-45.4,2.4l45.2-4.7l-0.3-3l-45.2,4.7l44.9-7.1
			l-0.5-3l-44.9,7.1l44.5-9.5l-0.6-2.9l-44.5,9.4l43.9-11.8v0l375.2-100.5c1.9,7.3,3.7,14.7,5.3,22.1l-25.6,5.4l0.6,2.9l25.5-5.4
			c3.3,15.8,5.8,31.7,7.5,47.8l-25.9,2.7l0.3,3l25.9-2.7c1.6,15.8,2.4,31.8,2.5,47.8h-84v4h84C1211.9,739.1,1211.1,755,1209.5,770.8
			z"/>
		<path d="M1442,723.5v-3h-20.5c0-23.6-1.2-47-3.5-70.2l20.3-2.1l-0.3-3l-20.3,2.1c-2.4-23.4-6-46.6-10.8-69.5l19.9-4.2l-0.6-2.9
			l-19.9,4.2c-4.9-22.9-10.9-45.6-18.1-68l19.3-6.3l-0.9-2.9l-19.3,6.3c-6.1-18.8-13.1-37.3-20.8-55.7c-1.4-3.4-2.9-6.7-4.3-10
			l18.6-8.3l-1.2-2.7l-18.6,8.3c-9.6-21.5-20.2-42.4-31.8-62.7l17.6-10.2l-1.5-2.6l-17.6,10.2c-11.8-20.3-24.5-40-38.3-59l16.5-12
			l-1.8-2.4l-16.5,12c-13.8-18.9-28.5-37.1-44.3-54.7l15.2-13.7l-2-2.2l-15.2,13.7c-8.1-8.9-16.4-17.7-24.9-26.2
			c-8.1-8.1-16.3-15.9-24.7-23.6l13.7-15.2l-2.2-2l-13.7,15.2c-17.5-15.8-35.7-30.6-54.5-44.4l12-16.5l-2.4-1.8l-12,16.5
			c-19-13.8-38.6-26.6-58.9-38.4l10.2-17.6l-2.6-1.5l-10.2,17.6c-20.3-11.7-41.2-22.4-62.6-32l8.3-18.6l-2.7-1.2l-8.3,18.6
			c-3.9-1.8-7.9-3.5-11.9-5.2C976,68.1,958,61.3,939.9,55.4l6.3-19.3l-2.9-0.9l-6.3,19.3c-22.3-7.3-45-13.4-67.9-18.3l4.2-19.9
			l-2.9-0.6l-4.2,19.9c-22.9-4.8-46.1-8.5-69.5-11l2.1-20.3l-3-0.3l-2.1,20.3c-23.2-2.4-46.6-3.6-70.2-3.7V0h-3v20.5
			c-23.6,0-47,1.2-70.2,3.5l-2.1-20.3l-3,0.3l2.1,20.3c-23.4,2.4-46.6,6-69.5,10.8l-4.2-19.9l-2.9,0.6l4.2,19.9
			c-22.9,4.9-45.6,10.9-68,18.1l-6.3-19.3l-2.9,0.9l6.3,19.3c-18.8,6.1-37.3,13.1-55.7,20.8c-3.4,1.4-6.7,2.9-10,4.3L430,61.3
			l-2.7,1.2l8.3,18.6c-21.5,9.6-42.4,20.2-62.7,31.8l-10.2-17.6l-2.6,1.5l10.2,17.6c-20.3,11.8-40,24.5-59,38.3l-12-16.5l-2.4,1.8
			l12,16.5c-18.9,13.8-37.1,28.5-54.7,44.3l-13.7-15.2l-2.2,2l13.7,15.2c-8.9,8.1-17.7,16.4-26.2,24.9c-8.1,8.1-15.9,16.3-23.6,24.7
			l-15.2-13.7l-2,2.2l15.2,13.7c-15.8,17.5-30.6,35.7-44.4,54.5l-16.5-12l-1.8,2.4l16.5,12c-13.8,19-26.6,38.6-38.4,58.9l-17.6-10.2
			l-1.5,2.6l17.6,10.2c-11.7,20.3-22.4,41.2-32,62.6l-18.6-8.3l-1.2,2.7l18.6,8.3c-1.8,3.9-3.5,7.9-5.2,11.9
			C68.1,466,61.3,484,55.4,502.1l-19.3-6.3l-0.9,2.9l19.3,6.3c-7.3,22.3-13.4,45-18.3,67.9l-19.9-4.2l-0.6,2.9l19.9,4.2
			c-4.8,22.9-8.5,46.1-11,69.5l-20.3-2.1l-0.3,3l20.3,2.1c-2.4,23.2-3.6,46.6-3.7,70.2H0v3h20.5c0,23.6,1.2,47,3.5,70.2l-20.3,2.1
			l0.3,3l20.3-2.1c2.4,23.4,6,46.6,10.8,69.5l-19.9,4.2l0.6,2.9l19.9-4.2c4.9,22.9,10.9,45.6,18.1,68l-19.3,6.3l0.9,2.9l19.3-6.3
			c6.1,18.8,13.1,37.3,20.8,55.7c1.4,3.4,2.9,6.7,4.3,10l-18.6,8.3l1.2,2.7l18.6-8.3c9.6,21.5,20.2,42.4,31.8,62.7l-17.6,10.2
			l1.5,2.6l17.6-10.2c11.8,20.3,24.5,40,38.3,59l-16.5,12l1.8,2.4l16.5-12c13.8,18.9,28.5,37.1,44.3,54.7l-15.2,13.7l2,2.2
			l15.2-13.7c8.1,8.9,16.4,17.7,24.9,26.2c8.1,8.1,16.3,15.9,24.7,23.6l-13.7,15.2l2.2,2l13.7-15.2c17.5,15.8,35.7,30.6,54.5,44.4
			l-12,16.5l2.4,1.8l12-16.5c19,13.8,38.6,26.6,58.9,38.4l-10.2,17.6l2.6,1.5l10.2-17.6c20.3,11.7,41.2,22.4,62.6,32l-8.3,18.6
			l2.7,1.2l8.3-18.6c3.9,1.8,7.9,3.5,11.9,5.2c17.7,7.5,35.6,14.2,53.8,20.2l-6.3,19.3l2.9,0.9l6.3-19.3c22.3,7.3,45,13.4,67.9,18.3
			l-4.2,19.9l2.9,0.6l4.2-19.9c22.9,4.8,46.1,8.5,69.5,11l-2.1,20.3l3,0.3l2.1-20.3c23.2,2.4,46.6,3.6,70.2,3.7v20.5h3v-20.5
			c23.6,0,47-1.2,70.2-3.5l2.1,20.3l3-0.3l-2.1-20.3c23.4-2.4,46.6-6,69.5-10.8l4.2,19.9l2.9-0.6l-4.2-19.9
			c22.9-4.9,45.6-10.9,68-18.1l6.3,19.3l2.9-0.9l-6.3-19.3c18.8-6.1,37.3-13.1,55.7-20.8c3.4-1.4,6.7-2.9,10-4.3l8.3,18.6l2.7-1.2
			l-8.3-18.6c21.5-9.6,42.4-20.2,62.7-31.8l10.2,17.6l2.6-1.5l-10.2-17.6c20.3-11.8,40-24.5,59-38.3l12,16.5l2.4-1.8l-12-16.5
			c18.9-13.8,37.1-28.5,54.7-44.3l13.7,15.2l2.2-2l-13.7-15.2c8.9-8.1,17.7-16.4,26.2-24.9c8.1-8.1,15.9-16.3,23.6-24.7l15.2,13.7
			l2-2.2l-15.2-13.7c15.8-17.5,30.6-35.7,44.4-54.5l16.5,12l1.8-2.4l-16.5-12c13.8-19,26.6-38.6,38.4-58.9l17.6,10.2l1.5-2.6
			l-17.6-10.2c11.7-20.3,22.4-41.2,32-62.6l18.6,8.3l1.2-2.7l-18.6-8.3c1.8-3.9,3.5-7.9,5.2-11.9c7.5-17.7,14.2-35.6,20.2-53.8
			l19.3,6.3l0.9-2.9l-19.3-6.3c7.3-22.3,13.4-45,18.3-67.9l19.9,4.2l0.6-2.9l-19.9-4.2c4.8-22.9,8.5-46.1,11-69.5l20.3,2.1l0.3-3
			l-20.3-2.1c2.4-23.2,3.6-46.6,3.7-70.2H1442z M1414.8,793.4l-18.5-1.9l-0.3,3l18.5,1.9c-2.5,23.3-6.1,46.4-11,69.2l-18.3-3.9
			l-0.6,2.9l18.3,3.9c-4.9,22.8-11,45.4-18.2,67.6l-17.8-5.8l-0.9,2.9l17.8,5.8c-5.9,18-12.6,35.9-20.1,53.5
			c-1.7,4-3.4,7.9-5.1,11.8l-17-7.6l-1.2,2.7l17.1,7.6c-9.6,21.4-20.3,42.2-31.9,62.3l-16.2-9.3l-1.5,2.6l16.1,9.3
			c-11.8,20.2-24.5,39.8-38.3,58.6l-15.1-10.9l-1.8,2.4l15,10.9c-13.8,18.8-28.5,36.9-44.2,54.3l-13.8-12.4l-2,2.2l13.8,12.4
			c-7.6,8.4-15.4,16.6-23.5,24.6c-8.5,8.5-17.2,16.8-26.1,24.8l-12.4-13.8l-2.2,2l12.4,13.8c-17.5,15.6-35.6,30.3-54.4,44.1
			l-10.9-15.1l-2.4,1.8l10.9,15c-18.9,13.7-38.5,26.4-58.8,38.1l-9.3-16.2l-2.6,1.5l9.3,16.2c-20.2,11.6-41,22.1-62.4,31.7
			l-7.6-17.1l-2.7,1.2l7.6,17c-3.3,1.5-6.6,2.9-10,4.3c-18.2,7.7-36.7,14.6-55.4,20.7l-5.8-17.8l-2.9,0.9l5.8,17.8
			c-22.3,7.2-44.8,13.2-67.7,18l-3.9-18.3l-2.9,0.6l3.9,18.3c-22.8,4.7-45.9,8.3-69.2,10.8l-1.9-18.5l-3,0.3l1.9,18.5
			c-23.1,2.3-46.4,3.5-69.9,3.5V1400h-3v18.5c-23.5-0.1-46.8-1.3-69.9-3.7l1.9-18.5l-3-0.3l-1.9,18.5c-23.3-2.5-46.4-6.1-69.2-11
			l3.9-18.3l-2.9-0.6l-3.9,18.3c-22.8-4.9-45.4-11-67.6-18.2l5.8-17.8l-2.9-0.9l-5.8,17.8c-18-5.9-35.9-12.6-53.5-20.1
			c-4-1.7-7.9-3.4-11.8-5.1l7.6-17l-2.7-1.2l-7.6,17.1c-21.4-9.6-42.2-20.3-62.3-31.9l9.3-16.2l-2.6-1.5l-9.3,16.1
			c-20.2-11.8-39.8-24.5-58.7-38.3l10.9-15.1l-2.4-1.8l-10.9,15c-18.8-13.8-36.9-28.5-54.3-44.2l12.4-13.8l-2.2-2l-12.4,13.8
			c-8.4-7.6-16.6-15.4-24.6-23.5c-8.5-8.5-16.8-17.2-24.8-26.1l13.8-12.4l-2-2.2l-13.8,12.4c-15.6-17.5-30.3-35.6-44.1-54.4
			l15.1-10.9l-1.8-2.4l-15,10.9c-13.7-18.9-26.4-38.5-38.1-58.8l16.2-9.3l-1.5-2.6l-16.2,9.3c-11.6-20.2-22.1-41-31.7-62.4l17.1-7.6
			l-1.2-2.7l-17,7.6c-1.5-3.3-2.9-6.6-4.3-10c-7.7-18.2-14.6-36.7-20.7-55.4l17.8-5.8l-0.9-2.9l-17.8,5.8
			c-7.2-22.3-13.2-44.8-18-67.7l18.3-3.9l-0.6-2.9l-18.3,3.9c-4.7-22.8-8.3-45.9-10.8-69.2l18.5-1.9l-0.3-3L27,791.4
			c-2.3-23.1-3.5-46.4-3.5-69.9H42v-3H23.5c0.1-23.5,1.3-46.8,3.7-69.9l18.5,1.9l0.3-3l-18.5-1.9c2.5-23.3,6.1-46.4,11-69.2
			l18.3,3.9l0.6-2.9l-18.3-3.9c4.9-22.8,11-45.4,18.2-67.6l17.8,5.8l0.9-2.9L58.2,503c5.9-18,12.6-35.9,20.1-53.5
			c1.7-4,3.4-7.9,5.1-11.8l17.1,7.6l1.2-2.7L84.7,435c9.6-21.4,20.3-42.2,31.9-62.3l16.2,9.3l1.5-2.6l-16.1-9.3
			c11.8-20.2,24.5-39.8,38.3-58.6l15.1,10.9l1.8-2.4l-15-10.9c13.8-18.8,28.5-36.9,44.2-54.3l13.8,12.4l2-2.2l-13.8-12.4
			c7.6-8.4,15.4-16.6,23.5-24.6c8.5-8.5,17.2-16.8,26.1-24.8l12.4,13.8l2.2-2L256.1,201c17.5-15.6,35.6-30.3,54.4-44.1l10.9,15.1
			l2.4-1.8l-10.9-15c18.9-13.7,38.5-26.4,58.8-38.1l9.3,16.2l2.6-1.5l-9.3-16.2c20.2-11.6,41-22.1,62.4-31.7l7.6,17.1l2.7-1.2
			l-7.6-17c3.3-1.5,6.6-2.9,10-4.3c18.2-7.7,36.7-14.6,55.4-20.7l5.8,17.8l2.9-0.9l-5.8-17.8c22.3-7.2,44.8-13.2,67.7-18l3.9,18.3
			l2.9-0.6l-3.9-18.3c22.8-4.7,45.9-8.3,69.2-10.8l1.9,18.5l3-0.3L650.6,27c23.1-2.3,46.4-3.5,69.9-3.5V42h3V23.5
			c23.5,0.1,46.8,1.3,69.9,3.7l-1.9,18.5l3,0.3l1.9-18.5c23.3,2.5,46.4,6.1,69.2,11l-3.9,18.3l2.9,0.6l3.9-18.3
			c22.8,4.9,45.4,11,67.6,18.2l-5.8,17.8l2.9,0.9l5.8-17.8c18,5.9,35.9,12.6,53.5,20.1c4,1.7,7.9,3.4,11.8,5.1l-7.6,17.1l2.7,1.2
			l7.6-17.1c21.4,9.6,42.2,20.3,62.3,31.9l-9.3,16.2l2.6,1.5l9.3-16.1c20.2,11.8,39.8,24.5,58.7,38.3l-10.9,15.1l2.4,1.8l10.9-15
			c18.8,13.8,36.9,28.5,54.3,44.2l-12.4,13.8l2.2,2l12.4-13.8c8.4,7.6,16.6,15.4,24.6,23.5c8.5,8.5,16.8,17.2,24.8,26.1l-13.8,12.4
			l2,2.2l13.8-12.4c15.6,17.5,30.3,35.6,44.1,54.4l-15.1,10.9l1.8,2.4l15-10.9c13.7,18.9,26.4,38.5,38.1,58.8l-16.2,9.3l1.5,2.6
			l16.2-9.3c11.6,20.2,22.1,41,31.7,62.4l-17.1,7.6l1.2,2.7l17-7.6c1.5,3.3,2.9,6.6,4.3,10c7.7,18.2,14.6,36.7,20.7,55.4l-17.8,5.8
			l0.9,2.9l17.8-5.8c7.2,22.3,13.2,44.8,18,67.7l-18.3,3.9l0.6,2.9l18.3-3.9c4.7,22.8,8.3,45.9,10.8,69.2l-18.5,1.9l0.3,3l18.5-1.9
			c2.3,23.1,3.5,46.4,3.5,69.9H1400v3h18.5C1418.4,747,1417.2,770.3,1414.8,793.4z"/>
	</g>
</g>
<g id="Layer_7" display="none">
	<g display="inline">
		<circle fill="none" stroke="#000000" stroke-width="4" stroke-miterlimit="10" cx="721" cy="721" r="493"/>
		<polygon points="762,162 723,162 723,106 719,106 719,162 678,162 678,166 719,166 719,314 723,314 723,166 762,166 		"/>
		<polygon points="477,216.4 443.2,235.9 415.2,187.4 411.8,189.4 439.8,237.9 404.3,258.4 406.3,261.9 441.8,241.4 515.8,369.5 
			519.2,367.5 445.2,239.4 479,219.9 		"/>
		<polygon points="257.4,406 237.9,439.8 189.4,411.8 187.4,415.2 235.9,443.2 215.4,478.7 218.9,480.7 239.4,445.2 367.5,519.2 
			369.5,515.8 241.4,441.8 260.9,408 		"/>
		<polygon points="162,680 162,719 106,719 106,723 162,723 162,764 166,764 166,723 314,723 314,719 166,719 166,680 		"/>
		<polygon points="216.4,965 235.9,998.8 187.4,1026.8 189.4,1030.2 237.9,1002.2 258.4,1037.7 261.9,1035.7 241.4,1000.2 
			369.5,926.2 367.5,922.8 239.4,996.8 219.9,963 		"/>
		<polygon points="406,1184.6 439.8,1204.1 411.8,1252.6 415.2,1254.6 443.2,1206.1 478.7,1226.6 480.7,1223.1 445.2,1202.6 
			519.2,1074.5 515.8,1072.5 441.8,1200.6 408,1181.1 		"/>
		<polygon points="680,1280 719,1280 719,1336 723,1336 723,1280 764,1280 764,1276 723,1276 723,1128 719,1128 719,1276 680,1276 
					"/>
		<polygon points="965,1225.6 998.8,1206.1 1026.8,1254.6 1030.2,1252.6 1002.2,1204.1 1037.7,1183.6 1035.7,1180.1 1000.2,1200.6 
			926.2,1072.5 922.8,1074.5 996.8,1202.6 963,1222.1 		"/>
		<polygon points="1184.6,1036 1204.1,1002.2 1252.6,1030.2 1254.6,1026.8 1206.1,998.8 1226.6,963.3 1223.1,961.3 1202.6,996.8 
			1074.5,922.8 1072.5,926.2 1200.6,1000.2 1181.1,1034 		"/>
		<polygon points="1280,762 1280,723 1336,723 1336,719 1280,719 1280,678 1276,678 1276,719 1128,719 1128,723 1276,723 1276,762 
					"/>
		<polygon points="1225.6,477 1206.1,443.2 1254.6,415.2 1252.6,411.8 1204.1,439.8 1183.6,404.3 1180.1,406.3 1200.6,441.8 
			1072.5,515.8 1074.5,519.2 1202.6,445.2 1222.1,479 		"/>
		<polygon points="1036,257.4 1002.2,237.9 1030.2,189.4 1026.8,187.4 998.8,235.9 963.3,215.4 961.3,218.9 996.8,239.4 
			922.8,367.5 926.2,369.5 1000.2,241.4 1034,260.9 		"/>
		<line fill="none" stroke="#000000" stroke-width="3" stroke-miterlimit="10" x1="721" y1="209" x2="721" y2="256"/>
		<line fill="none" stroke="#000000" stroke-width="3" stroke-miterlimit="10" x1="667.5" y1="211.8" x2="672.4" y2="258.5"/>
		<line fill="none" stroke="#000000" stroke-width="3" stroke-miterlimit="10" x1="614.5" y1="220.2" x2="624.3" y2="266.2"/>
		<line fill="none" stroke="#000000" stroke-width="3" stroke-miterlimit="10" x1="562.8" y1="234.1" x2="577.3" y2="278.8"/>
		<line fill="none" stroke="#000000" stroke-width="3" stroke-miterlimit="10" x1="512.8" y1="253.3" x2="531.9" y2="296.2"/>
		<line fill="none" stroke="#000000" stroke-width="3" stroke-miterlimit="10" x1="465" y1="277.6" x2="488.5" y2="318.3"/>
		<line fill="none" stroke="#000000" stroke-width="3" stroke-miterlimit="10" x1="420.1" y1="306.8" x2="447.7" y2="344.8"/>
		<line fill="none" stroke="#000000" stroke-width="3" stroke-miterlimit="10" x1="378.4" y1="340.5" x2="409.9" y2="375.4"/>
		<line fill="none" stroke="#000000" stroke-width="3" stroke-miterlimit="10" x1="340.5" y1="378.4" x2="375.4" y2="409.9"/>
		<line fill="none" stroke="#000000" stroke-width="3" stroke-miterlimit="10" x1="306.8" y1="420.1" x2="344.8" y2="447.7"/>
		<line fill="none" stroke="#000000" stroke-width="3" stroke-miterlimit="10" x1="277.6" y1="465" x2="318.3" y2="488.5"/>
		<line fill="none" stroke="#000000" stroke-width="3" stroke-miterlimit="10" x1="253.3" y1="512.8" x2="296.2" y2="531.9"/>
		<line fill="none" stroke="#000000" stroke-width="3" stroke-miterlimit="10" x1="234.1" y1="562.8" x2="278.8" y2="577.3"/>
		<line fill="none" stroke="#000000" stroke-width="3" stroke-miterlimit="10" x1="220.2" y1="614.5" x2="266.2" y2="624.3"/>
		<line fill="none" stroke="#000000" stroke-width="3" stroke-miterlimit="10" x1="211.8" y1="667.5" x2="258.5" y2="672.4"/>
		<line fill="none" stroke="#000000" stroke-width="3" stroke-miterlimit="10" x1="209" y1="721" x2="256" y2="721"/>
		<line fill="none" stroke="#000000" stroke-width="3" stroke-miterlimit="10" x1="211.8" y1="774.5" x2="258.5" y2="769.6"/>
		<line fill="none" stroke="#000000" stroke-width="3" stroke-miterlimit="10" x1="220.2" y1="827.5" x2="266.2" y2="817.7"/>
		<line fill="none" stroke="#000000" stroke-width="3" stroke-miterlimit="10" x1="234.1" y1="879.2" x2="278.8" y2="864.7"/>
		<line fill="none" stroke="#000000" stroke-width="3" stroke-miterlimit="10" x1="253.3" y1="929.2" x2="296.2" y2="910.1"/>
		<line fill="none" stroke="#000000" stroke-width="3" stroke-miterlimit="10" x1="277.6" y1="977" x2="318.3" y2="953.5"/>
		<line fill="none" stroke="#000000" stroke-width="3" stroke-miterlimit="10" x1="306.8" y1="1021.9" x2="344.8" y2="994.3"/>
		<line fill="none" stroke="#000000" stroke-width="3" stroke-miterlimit="10" x1="340.5" y1="1063.6" x2="375.4" y2="1032.1"/>
		<line fill="none" stroke="#000000" stroke-width="3" stroke-miterlimit="10" x1="378.4" y1="1101.5" x2="409.9" y2="1066.6"/>
		<line fill="none" stroke="#000000" stroke-width="3" stroke-miterlimit="10" x1="420.1" y1="1135.2" x2="447.7" y2="1097.2"/>
		<line fill="none" stroke="#000000" stroke-width="3" stroke-miterlimit="10" x1="465" y1="1164.4" x2="488.5" y2="1123.7"/>
		<line fill="none" stroke="#000000" stroke-width="3" stroke-miterlimit="10" x1="512.8" y1="1188.7" x2="531.9" y2="1145.8"/>
		<line fill="none" stroke="#000000" stroke-width="3" stroke-miterlimit="10" x1="562.8" y1="1207.9" x2="577.3" y2="1163.2"/>
		<line fill="none" stroke="#000000" stroke-width="3" stroke-miterlimit="10" x1="614.5" y1="1221.8" x2="624.3" y2="1175.8"/>
		<line fill="none" stroke="#000000" stroke-width="3" stroke-miterlimit="10" x1="667.5" y1="1230.2" x2="672.4" y2="1183.5"/>
		<line fill="none" stroke="#000000" stroke-width="3" stroke-miterlimit="10" x1="721" y1="1233" x2="721" y2="1186"/>
		<line fill="none" stroke="#000000" stroke-width="3" stroke-miterlimit="10" x1="774.5" y1="1230.2" x2="769.6" y2="1183.5"/>
		<line fill="none" stroke="#000000" stroke-width="3" stroke-miterlimit="10" x1="827.5" y1="1221.8" x2="817.7" y2="1175.8"/>
		<line fill="none" stroke="#000000" stroke-width="3" stroke-miterlimit="10" x1="879.2" y1="1207.9" x2="864.7" y2="1163.2"/>
		<line fill="none" stroke="#000000" stroke-width="3" stroke-miterlimit="10" x1="929.2" y1="1188.7" x2="910.1" y2="1145.8"/>
		<line fill="none" stroke="#000000" stroke-width="3" stroke-miterlimit="10" x1="977" y1="1164.4" x2="953.5" y2="1123.7"/>
		<line fill="none" stroke="#000000" stroke-width="3" stroke-miterlimit="10" x1="1021.9" y1="1135.2" x2="994.3" y2="1097.2"/>
		<line fill="none" stroke="#000000" stroke-width="3" stroke-miterlimit="10" x1="1063.6" y1="1101.5" x2="1032.1" y2="1066.6"/>
		<line fill="none" stroke="#000000" stroke-width="3" stroke-miterlimit="10" x1="1101.5" y1="1063.6" x2="1066.6" y2="1032.1"/>
		<line fill="none" stroke="#000000" stroke-width="3" stroke-miterlimit="10" x1="1135.2" y1="1021.9" x2="1097.2" y2="994.3"/>
		<line fill="none" stroke="#000000" stroke-width="3" stroke-miterlimit="10" x1="1164.4" y1="977" x2="1123.7" y2="953.5"/>
		<line fill="none" stroke="#000000" stroke-width="3" stroke-miterlimit="10" x1="1188.7" y1="929.2" x2="1145.8" y2="910.1"/>
		<line fill="none" stroke="#000000" stroke-width="3" stroke-miterlimit="10" x1="1207.9" y1="879.2" x2="1163.2" y2="864.7"/>
		<line fill="none" stroke="#000000" stroke-width="3" stroke-miterlimit="10" x1="1221.8" y1="827.5" x2="1175.8" y2="817.7"/>
		<line fill="none" stroke="#000000" stroke-width="3" stroke-miterlimit="10" x1="1230.2" y1="774.5" x2="1183.5" y2="769.6"/>
		<line fill="none" stroke="#000000" stroke-width="3" stroke-miterlimit="10" x1="1233" y1="721" x2="1186" y2="721"/>
		<line fill="none" stroke="#000000" stroke-width="3" stroke-miterlimit="10" x1="1230.2" y1="667.5" x2="1183.5" y2="672.4"/>
		<line fill="none" stroke="#000000" stroke-width="3" stroke-miterlimit="10" x1="1221.8" y1="614.5" x2="1175.8" y2="624.3"/>
		<line fill="none" stroke="#000000" stroke-width="3" stroke-miterlimit="10" x1="1207.9" y1="562.8" x2="1163.2" y2="577.3"/>
		<line fill="none" stroke="#000000" stroke-width="3" stroke-miterlimit="10" x1="1188.7" y1="512.8" x2="1145.8" y2="531.9"/>
		<line fill="none" stroke="#000000" stroke-width="3" stroke-miterlimit="10" x1="1164.4" y1="465" x2="1123.7" y2="488.5"/>
		<line fill="none" stroke="#000000" stroke-width="3" stroke-miterlimit="10" x1="1135.2" y1="420.1" x2="1097.2" y2="447.7"/>
		<line fill="none" stroke="#000000" stroke-width="3" stroke-miterlimit="10" x1="1101.5" y1="378.4" x2="1066.6" y2="409.9"/>
		<line fill="none" stroke="#000000" stroke-width="3" stroke-miterlimit="10" x1="1063.6" y1="340.5" x2="1032.1" y2="375.4"/>
		<line fill="none" stroke="#000000" stroke-width="3" stroke-miterlimit="10" x1="1021.9" y1="306.8" x2="994.3" y2="344.8"/>
		<line fill="none" stroke="#000000" stroke-width="3" stroke-miterlimit="10" x1="977" y1="277.6" x2="953.5" y2="318.3"/>
		<line fill="none" stroke="#000000" stroke-width="3" stroke-miterlimit="10" x1="929.2" y1="253.3" x2="910.1" y2="296.2"/>
		<line fill="none" stroke="#000000" stroke-width="3" stroke-miterlimit="10" x1="879.2" y1="234.1" x2="864.7" y2="278.8"/>
		<line fill="none" stroke="#000000" stroke-width="3" stroke-miterlimit="10" x1="827.5" y1="220.2" x2="817.7" y2="266.2"/>
		<line fill="none" stroke="#000000" stroke-width="3" stroke-miterlimit="10" x1="774.5" y1="211.8" x2="769.6" y2="258.5"/>
		<line fill="none" stroke="#000000" stroke-width="3" stroke-miterlimit="10" x1="721" y1="721" x2="1099.3" y2="342.7"/>
		<line fill="none" stroke="#000000" stroke-width="3" stroke-miterlimit="10" x1="721" y1="721" x2="859.5" y2="204.2"/>
		<line fill="none" stroke="#000000" stroke-width="3" stroke-miterlimit="10" x1="721" y1="721" x2="582.5" y2="204.2"/>
		<line fill="none" stroke="#000000" stroke-width="3" stroke-miterlimit="10" x1="721" y1="721" x2="342.7" y2="342.7"/>
		<line fill="none" stroke="#000000" stroke-width="3" stroke-miterlimit="10" x1="721" y1="721" x2="204.2" y2="582.5"/>
		<line fill="none" stroke="#000000" stroke-width="3" stroke-miterlimit="10" x1="721" y1="721" x2="204.2" y2="859.5"/>
		<line fill="none" stroke="#000000" stroke-width="3" stroke-miterlimit="10" x1="721" y1="721" x2="342.7" y2="1099.3"/>
		<line fill="none" stroke="#000000" stroke-width="3" stroke-miterlimit="10" x1="721" y1="721" x2="582.5" y2="1237.8"/>
		<line fill="none" stroke="#000000" stroke-width="3" stroke-miterlimit="10" x1="721" y1="721" x2="859.5" y2="1237.8"/>
		<line fill="none" stroke="#000000" stroke-width="3" stroke-miterlimit="10" x1="721" y1="721" x2="1099.3" y2="1099.3"/>
		<line fill="none" stroke="#000000" stroke-width="3" stroke-miterlimit="10" x1="721" y1="721" x2="1237.8" y2="859.5"/>
		<line fill="none" stroke="#000000" stroke-width="3" stroke-miterlimit="10" x1="721" y1="721" x2="1237.8" y2="582.5"/>
		<line fill="none" stroke="#000000" stroke-width="3" stroke-miterlimit="10" x1="721" y1="721" x2="793.6" y2="648.4"/>
		<line fill="none" stroke="#000000" stroke-width="3" stroke-miterlimit="10" x1="721" y1="721" x2="789.7" y2="644.7"/>
		<line fill="none" stroke="#000000" stroke-width="3" stroke-miterlimit="10" x1="721" y1="721" x2="785.7" y2="641.2"/>
		<line fill="none" stroke="#000000" stroke-width="3" stroke-miterlimit="10" x1="721" y1="721" x2="781.4" y2="637.9"/>
		<line fill="none" stroke="#000000" stroke-width="3" stroke-miterlimit="10" x1="721" y1="721" x2="777" y2="634.8"/>
		<line fill="none" stroke="#000000" stroke-width="3" stroke-miterlimit="10" x1="721" y1="721" x2="772.4" y2="632"/>
		<line fill="none" stroke="#000000" stroke-width="3" stroke-miterlimit="10" x1="721" y1="721" x2="767.6" y2="629.5"/>
		<line fill="none" stroke="#000000" stroke-width="3" stroke-miterlimit="10" x1="721" y1="721" x2="762.8" y2="627.1"/>
		<line fill="none" stroke="#000000" stroke-width="3" stroke-miterlimit="10" x1="721" y1="721" x2="757.8" y2="625.1"/>
		<line fill="none" stroke="#000000" stroke-width="3" stroke-miterlimit="10" x1="721" y1="721" x2="752.7" y2="623.3"/>
		<line fill="none" stroke="#000000" stroke-width="3" stroke-miterlimit="10" x1="721" y1="721" x2="747.6" y2="621.8"/>
		<line fill="none" stroke="#000000" stroke-width="3" stroke-miterlimit="10" x1="721" y1="721" x2="742.4" y2="620.5"/>
		<line fill="none" stroke="#000000" stroke-width="3" stroke-miterlimit="10" x1="721" y1="721" x2="737.1" y2="619.5"/>
		<line fill="none" stroke="#000000" stroke-width="3" stroke-miterlimit="10" x1="721" y1="721" x2="731.7" y2="618.8"/>
		<line fill="none" stroke="#000000" stroke-width="3" stroke-miterlimit="10" x1="721" y1="721" x2="726.4" y2="618.4"/>
		<line fill="none" stroke="#000000" stroke-width="3" stroke-miterlimit="10" x1="721" y1="721" x2="721" y2="618.3"/>
		<line fill="none" stroke="#000000" stroke-width="3" stroke-miterlimit="10" x1="721" y1="721" x2="715.6" y2="618.4"/>
		<line fill="none" stroke="#000000" stroke-width="3" stroke-miterlimit="10" x1="721" y1="721" x2="710.3" y2="618.8"/>
		<line fill="none" stroke="#000000" stroke-width="3" stroke-miterlimit="10" x1="721" y1="721" x2="704.9" y2="619.5"/>
		<line fill="none" stroke="#000000" stroke-width="3" stroke-miterlimit="10" x1="721" y1="721" x2="699.6" y2="620.5"/>
		<line fill="none" stroke="#000000" stroke-width="3" stroke-miterlimit="10" x1="721" y1="721" x2="694.4" y2="621.8"/>
		<line fill="none" stroke="#000000" stroke-width="3" stroke-miterlimit="10" x1="721" y1="721" x2="689.3" y2="623.3"/>
		<line fill="none" stroke="#000000" stroke-width="3" stroke-miterlimit="10" x1="721" y1="721" x2="684.2" y2="625.1"/>
		<line fill="none" stroke="#000000" stroke-width="3" stroke-miterlimit="10" x1="721" y1="721" x2="679.2" y2="627.1"/>
		<line fill="none" stroke="#000000" stroke-width="3" stroke-miterlimit="10" x1="721" y1="721" x2="674.4" y2="629.5"/>
		<line fill="none" stroke="#000000" stroke-width="3" stroke-miterlimit="10" x1="721" y1="721" x2="669.6" y2="632"/>
		<line fill="none" stroke="#000000" stroke-width="3" stroke-miterlimit="10" x1="721" y1="721" x2="665" y2="634.8"/>
		<line fill="none" stroke="#000000" stroke-width="3" stroke-miterlimit="10" x1="721" y1="721" x2="660.6" y2="637.9"/>
		<line fill="none" stroke="#000000" stroke-width="3" stroke-miterlimit="10" x1="721" y1="721" x2="656.3" y2="641.2"/>
		<line fill="none" stroke="#000000" stroke-width="3" stroke-miterlimit="10" x1="721" y1="721" x2="652.3" y2="644.7"/>
		<line fill="none" stroke="#000000" stroke-width="3" stroke-miterlimit="10" x1="721" y1="721" x2="648.4" y2="648.4"/>
		<line fill="none" stroke="#000000" stroke-width="3" stroke-miterlimit="10" x1="721" y1="721" x2="644.7" y2="652.3"/>
		<line fill="none" stroke="#000000" stroke-width="3" stroke-miterlimit="10" x1="721" y1="721" x2="641.2" y2="656.3"/>
		<line fill="none" stroke="#000000" stroke-width="3" stroke-miterlimit="10" x1="721" y1="721" x2="637.9" y2="660.6"/>
		<line fill="none" stroke="#000000" stroke-width="3" stroke-miterlimit="10" x1="721" y1="721" x2="634.8" y2="665"/>
		<line fill="none" stroke="#000000" stroke-width="3" stroke-miterlimit="10" x1="721" y1="721" x2="632" y2="669.6"/>
		<line fill="none" stroke="#000000" stroke-width="3" stroke-miterlimit="10" x1="721" y1="721" x2="629.5" y2="674.4"/>
		<line fill="none" stroke="#000000" stroke-width="3" stroke-miterlimit="10" x1="721" y1="721" x2="627.1" y2="679.2"/>
		<line fill="none" stroke="#000000" stroke-width="3" stroke-miterlimit="10" x1="721" y1="721" x2="625.1" y2="684.2"/>
		<line fill="none" stroke="#000000" stroke-width="3" stroke-miterlimit="10" x1="721" y1="721" x2="623.3" y2="689.3"/>
		<line fill="none" stroke="#000000" stroke-width="3" stroke-miterlimit="10" x1="721" y1="721" x2="621.8" y2="694.4"/>
		<line fill="none" stroke="#000000" stroke-width="3" stroke-miterlimit="10" x1="721" y1="721" x2="620.5" y2="699.6"/>
		<line fill="none" stroke="#000000" stroke-width="3" stroke-miterlimit="10" x1="721" y1="721" x2="619.5" y2="704.9"/>
		<line fill="none" stroke="#000000" stroke-width="3" stroke-miterlimit="10" x1="721" y1="721" x2="618.8" y2="710.3"/>
		<line fill="none" stroke="#000000" stroke-width="3" stroke-miterlimit="10" x1="721" y1="721" x2="618.4" y2="715.6"/>
		<line fill="none" stroke="#000000" stroke-width="3" stroke-miterlimit="10" x1="721" y1="721" x2="618.3" y2="721"/>
		<line fill="none" stroke="#000000" stroke-width="3" stroke-miterlimit="10" x1="721" y1="721" x2="618.4" y2="726.4"/>
		<line fill="none" stroke="#000000" stroke-width="3" stroke-miterlimit="10" x1="721" y1="721" x2="618.8" y2="731.7"/>
		<line fill="none" stroke="#000000" stroke-width="3" stroke-miterlimit="10" x1="721" y1="721" x2="619.5" y2="737.1"/>
		<line fill="none" stroke="#000000" stroke-width="3" stroke-miterlimit="10" x1="721" y1="721" x2="620.5" y2="742.4"/>
		<line fill="none" stroke="#000000" stroke-width="3" stroke-miterlimit="10" x1="721" y1="721" x2="621.8" y2="747.6"/>
		<line fill="none" stroke="#000000" stroke-width="3" stroke-miterlimit="10" x1="721" y1="721" x2="623.3" y2="752.7"/>
		<line fill="none" stroke="#000000" stroke-width="3" stroke-miterlimit="10" x1="721" y1="721" x2="625.1" y2="757.8"/>
		<line fill="none" stroke="#000000" stroke-width="3" stroke-miterlimit="10" x1="721" y1="721" x2="627.1" y2="762.8"/>
		<line fill="none" stroke="#000000" stroke-width="3" stroke-miterlimit="10" x1="721" y1="721" x2="629.5" y2="767.6"/>
		<line fill="none" stroke="#000000" stroke-width="3" stroke-miterlimit="10" x1="721" y1="721" x2="632" y2="772.4"/>
		<line fill="none" stroke="#000000" stroke-width="3" stroke-miterlimit="10" x1="721" y1="721" x2="634.8" y2="777"/>
		<line fill="none" stroke="#000000" stroke-width="3" stroke-miterlimit="10" x1="721" y1="721" x2="637.9" y2="781.4"/>
		<line fill="none" stroke="#000000" stroke-width="3" stroke-miterlimit="10" x1="721" y1="721" x2="641.2" y2="785.7"/>
		<line fill="none" stroke="#000000" stroke-width="3" stroke-miterlimit="10" x1="721" y1="721" x2="644.7" y2="789.7"/>
		<line fill="none" stroke="#000000" stroke-width="3" stroke-miterlimit="10" x1="721" y1="721" x2="648.4" y2="793.6"/>
		<line fill="none" stroke="#000000" stroke-width="3" stroke-miterlimit="10" x1="721" y1="721" x2="652.3" y2="797.3"/>
		<line fill="none" stroke="#000000" stroke-width="3" stroke-miterlimit="10" x1="721" y1="721" x2="656.3" y2="800.8"/>
		<line fill="none" stroke="#000000" stroke-width="3" stroke-miterlimit="10" x1="721" y1="721" x2="660.6" y2="804.1"/>
		<line fill="none" stroke="#000000" stroke-width="3" stroke-miterlimit="10" x1="721" y1="721" x2="665" y2="807.2"/>
		<line fill="none" stroke="#000000" stroke-width="3" stroke-miterlimit="10" x1="721" y1="721" x2="669.6" y2="810"/>
		<line fill="none" stroke="#000000" stroke-width="3" stroke-miterlimit="10" x1="721" y1="721" x2="674.4" y2="812.5"/>
		<line fill="none" stroke="#000000" stroke-width="3" stroke-miterlimit="10" x1="721" y1="721" x2="679.2" y2="814.9"/>
		<line fill="none" stroke="#000000" stroke-width="3" stroke-miterlimit="10" x1="721" y1="721" x2="684.2" y2="816.9"/>
		<line fill="none" stroke="#000000" stroke-width="3" stroke-miterlimit="10" x1="721" y1="721" x2="689.3" y2="818.7"/>
		<line fill="none" stroke="#000000" stroke-width="3" stroke-miterlimit="10" x1="721" y1="721" x2="694.4" y2="820.2"/>
		<line fill="none" stroke="#000000" stroke-width="3" stroke-miterlimit="10" x1="721" y1="721" x2="699.6" y2="821.5"/>
		<line fill="none" stroke="#000000" stroke-width="3" stroke-miterlimit="10" x1="721" y1="721" x2="704.9" y2="822.5"/>
		<line fill="none" stroke="#000000" stroke-width="3" stroke-miterlimit="10" x1="721" y1="721" x2="710.3" y2="823.2"/>
		<line fill="none" stroke="#000000" stroke-width="3" stroke-miterlimit="10" x1="721" y1="721" x2="715.6" y2="823.6"/>
		<line fill="none" stroke="#000000" stroke-width="3" stroke-miterlimit="10" x1="721" y1="721" x2="721" y2="823.7"/>
		<line fill="none" stroke="#000000" stroke-width="3" stroke-miterlimit="10" x1="721" y1="721" x2="726.4" y2="823.6"/>
		<line fill="none" stroke="#000000" stroke-width="3" stroke-miterlimit="10" x1="721" y1="721" x2="731.7" y2="823.2"/>
		<line fill="none" stroke="#000000" stroke-width="3" stroke-miterlimit="10" x1="721" y1="721" x2="737.1" y2="822.5"/>
		<line fill="none" stroke="#000000" stroke-width="3" stroke-miterlimit="10" x1="721" y1="721" x2="742.4" y2="821.5"/>
		<line fill="none" stroke="#000000" stroke-width="3" stroke-miterlimit="10" x1="721" y1="721" x2="747.6" y2="820.2"/>
		<line fill="none" stroke="#000000" stroke-width="3" stroke-miterlimit="10" x1="721" y1="721" x2="752.7" y2="818.7"/>
		<line fill="none" stroke="#000000" stroke-width="3" stroke-miterlimit="10" x1="721" y1="721" x2="757.8" y2="816.9"/>
		<line fill="none" stroke="#000000" stroke-width="3" stroke-miterlimit="10" x1="721" y1="721" x2="762.8" y2="814.9"/>
		<line fill="none" stroke="#000000" stroke-width="3" stroke-miterlimit="10" x1="721" y1="721" x2="767.6" y2="812.5"/>
		<line fill="none" stroke="#000000" stroke-width="3" stroke-miterlimit="10" x1="721" y1="721" x2="772.4" y2="810"/>
		<line fill="none" stroke="#000000" stroke-width="3" stroke-miterlimit="10" x1="721" y1="721" x2="777" y2="807.2"/>
		<line fill="none" stroke="#000000" stroke-width="3" stroke-miterlimit="10" x1="721" y1="721" x2="781.4" y2="804.1"/>
		<line fill="none" stroke="#000000" stroke-width="3" stroke-miterlimit="10" x1="721" y1="721" x2="785.7" y2="800.8"/>
		<line fill="none" stroke="#000000" stroke-width="3" stroke-miterlimit="10" x1="721" y1="721" x2="789.7" y2="797.3"/>
		<line fill="none" stroke="#000000" stroke-width="3" stroke-miterlimit="10" x1="721" y1="721" x2="793.6" y2="793.6"/>
		<line fill="none" stroke="#000000" stroke-width="3" stroke-miterlimit="10" x1="721" y1="721" x2="797.3" y2="789.7"/>
		<line fill="none" stroke="#000000" stroke-width="3" stroke-miterlimit="10" x1="721" y1="721" x2="800.8" y2="785.7"/>
		<line fill="none" stroke="#000000" stroke-width="3" stroke-miterlimit="10" x1="721" y1="721" x2="804.1" y2="781.4"/>
		<line fill="none" stroke="#000000" stroke-width="3" stroke-miterlimit="10" x1="721" y1="721" x2="807.2" y2="777"/>
		<line fill="none" stroke="#000000" stroke-width="3" stroke-miterlimit="10" x1="721" y1="721" x2="810" y2="772.4"/>
		<line fill="none" stroke="#000000" stroke-width="3" stroke-miterlimit="10" x1="721" y1="721" x2="812.5" y2="767.6"/>
		<line fill="none" stroke="#000000" stroke-width="3" stroke-miterlimit="10" x1="721" y1="721" x2="814.9" y2="762.8"/>
		<line fill="none" stroke="#000000" stroke-width="3" stroke-miterlimit="10" x1="721" y1="721" x2="816.9" y2="757.8"/>
		<line fill="none" stroke="#000000" stroke-width="3" stroke-miterlimit="10" x1="721" y1="721" x2="818.7" y2="752.7"/>
		<line fill="none" stroke="#000000" stroke-width="3" stroke-miterlimit="10" x1="721" y1="721" x2="820.2" y2="747.6"/>
		<line fill="none" stroke="#000000" stroke-width="3" stroke-miterlimit="10" x1="721" y1="721" x2="821.5" y2="742.4"/>
		<line fill="none" stroke="#000000" stroke-width="3" stroke-miterlimit="10" x1="721" y1="721" x2="822.5" y2="737.1"/>
		<line fill="none" stroke="#000000" stroke-width="3" stroke-miterlimit="10" x1="721" y1="721" x2="823.2" y2="731.7"/>
		<line fill="none" stroke="#000000" stroke-width="3" stroke-miterlimit="10" x1="721" y1="721" x2="823.6" y2="726.4"/>
		<line fill="none" stroke="#000000" stroke-width="3" stroke-miterlimit="10" x1="721" y1="721" x2="823.7" y2="721"/>
		<line fill="none" stroke="#000000" stroke-width="3" stroke-miterlimit="10" x1="721" y1="721" x2="823.6" y2="715.6"/>
		<line fill="none" stroke="#000000" stroke-width="3" stroke-miterlimit="10" x1="721" y1="721" x2="823.2" y2="710.3"/>
		<line fill="none" stroke="#000000" stroke-width="3" stroke-miterlimit="10" x1="721" y1="721" x2="822.5" y2="704.9"/>
		<line fill="none" stroke="#000000" stroke-width="3" stroke-miterlimit="10" x1="721" y1="721" x2="821.5" y2="699.6"/>
		<line fill="none" stroke="#000000" stroke-width="3" stroke-miterlimit="10" x1="721" y1="721" x2="820.2" y2="694.4"/>
		<line fill="none" stroke="#000000" stroke-width="3" stroke-miterlimit="10" x1="721" y1="721" x2="818.7" y2="689.3"/>
		<line fill="none" stroke="#000000" stroke-width="3" stroke-miterlimit="10" x1="721" y1="721" x2="816.9" y2="684.2"/>
		<line fill="none" stroke="#000000" stroke-width="3" stroke-miterlimit="10" x1="721" y1="721" x2="814.9" y2="679.2"/>
		<line fill="none" stroke="#000000" stroke-width="3" stroke-miterlimit="10" x1="721" y1="721" x2="812.5" y2="674.4"/>
		<line fill="none" stroke="#000000" stroke-width="3" stroke-miterlimit="10" x1="721" y1="721" x2="810" y2="669.6"/>
		<line fill="none" stroke="#000000" stroke-width="3" stroke-miterlimit="10" x1="721" y1="721" x2="807.2" y2="665"/>
		<line fill="none" stroke="#000000" stroke-width="3" stroke-miterlimit="10" x1="721" y1="721" x2="804.1" y2="660.6"/>
		<line fill="none" stroke="#000000" stroke-width="3" stroke-miterlimit="10" x1="721" y1="721" x2="800.8" y2="656.3"/>
		<line fill="none" stroke="#000000" stroke-width="3" stroke-miterlimit="10" x1="721" y1="721" x2="797.3" y2="652.3"/>
		<circle fill="none" stroke="#000000" stroke-width="3" stroke-miterlimit="10" cx="721" cy="721" r="699"/>
		<line fill="none" stroke="#000000" stroke-width="3" stroke-miterlimit="10" x1="722" y1="0" x2="722" y2="42"/>
		<line fill="none" stroke="#000000" stroke-width="3" stroke-miterlimit="10" x1="646.6" y1="3.8" x2="651" y2="45.6"/>
		<line fill="none" stroke="#000000" stroke-width="3" stroke-miterlimit="10" x1="572.1" y1="15.5" x2="580.8" y2="56.6"/>
		<line fill="none" stroke="#000000" stroke-width="3" stroke-miterlimit="10" x1="499.1" y1="35" x2="512.1" y2="74.9"/>
		<line fill="none" stroke="#000000" stroke-width="3" stroke-miterlimit="10" x1="428.7" y1="61.9" x2="445.7" y2="100.3"/>
		<line fill="none" stroke="#000000" stroke-width="3" stroke-miterlimit="10" x1="361.4" y1="96.1" x2="382.4" y2="132.5"/>
		<line fill="none" stroke="#000000" stroke-width="3" stroke-miterlimit="10" x1="298" y1="137.1" x2="322.7" y2="171.1"/>
		<line fill="none" stroke="#000000" stroke-width="3" stroke-miterlimit="10" x1="239.3" y1="184.5" x2="267.4" y2="215.7"/>
		<line fill="none" stroke="#000000" stroke-width="3" stroke-miterlimit="10" x1="185.9" y1="237.8" x2="217.1" y2="265.9"/>
		<line fill="none" stroke="#000000" stroke-width="3" stroke-miterlimit="10" x1="138.3" y1="296.4" x2="172.3" y2="321.1"/>
		<line fill="none" stroke="#000000" stroke-width="3" stroke-miterlimit="10" x1="97.1" y1="359.6" x2="133.5" y2="380.6"/>
		<line fill="none" stroke="#000000" stroke-width="3" stroke-miterlimit="10" x1="62.7" y1="426.8" x2="101.1" y2="443.9"/>
		<line fill="none" stroke="#000000" stroke-width="3" stroke-miterlimit="10" x1="35.6" y1="497.2" x2="75.5" y2="510.2"/>
		<line fill="none" stroke="#000000" stroke-width="3" stroke-miterlimit="10" x1="16" y1="570.1" x2="57" y2="578.8"/>
		<line fill="none" stroke="#000000" stroke-width="3" stroke-miterlimit="10" x1="4.1" y1="644.6" x2="45.8" y2="649"/>
		<line fill="none" stroke="#000000" stroke-width="3" stroke-miterlimit="10" x1="0" y1="720" x2="42" y2="720"/>
		<line fill="none" stroke="#000000" stroke-width="3" stroke-miterlimit="10" x1="3.8" y1="795.4" x2="45.6" y2="791"/>
		<line fill="none" stroke="#000000" stroke-width="3" stroke-miterlimit="10" x1="15.5" y1="869.9" x2="56.6" y2="861.2"/>
		<line fill="none" stroke="#000000" stroke-width="3" stroke-miterlimit="10" x1="35" y1="942.9" x2="74.9" y2="929.9"/>
		<line fill="none" stroke="#000000" stroke-width="3" stroke-miterlimit="10" x1="61.9" y1="1013.3" x2="100.3" y2="996.3"/>
		<line fill="none" stroke="#000000" stroke-width="3" stroke-miterlimit="10" x1="96.1" y1="1080.6" x2="132.5" y2="1059.6"/>
		<line fill="none" stroke="#000000" stroke-width="3" stroke-miterlimit="10" x1="137.1" y1="1144" x2="171.1" y2="1119.3"/>
		<line fill="none" stroke="#000000" stroke-width="3" stroke-miterlimit="10" x1="184.5" y1="1202.7" x2="215.7" y2="1174.6"/>
		<line fill="none" stroke="#000000" stroke-width="3" stroke-miterlimit="10" x1="237.8" y1="1256.1" x2="265.9" y2="1224.9"/>
		<line fill="none" stroke="#000000" stroke-width="3" stroke-miterlimit="10" x1="296.4" y1="1303.7" x2="321.1" y2="1269.7"/>
		<line fill="none" stroke="#000000" stroke-width="3" stroke-miterlimit="10" x1="359.6" y1="1344.9" x2="380.6" y2="1308.5"/>
		<line fill="none" stroke="#000000" stroke-width="3" stroke-miterlimit="10" x1="426.8" y1="1379.3" x2="443.9" y2="1340.9"/>
		<line fill="none" stroke="#000000" stroke-width="3" stroke-miterlimit="10" x1="497.2" y1="1406.4" x2="510.2" y2="1366.5"/>
		<line fill="none" stroke="#000000" stroke-width="3" stroke-miterlimit="10" x1="570.1" y1="1426" x2="578.8" y2="1385"/>
		<line fill="none" stroke="#000000" stroke-width="3" stroke-miterlimit="10" x1="644.6" y1="1437.9" x2="649" y2="1396.2"/>
		<line fill="none" stroke="#000000" stroke-width="3" stroke-miterlimit="10" x1="720" y1="1442" x2="720" y2="1400"/>
		<line fill="none" stroke="#000000" stroke-width="3" stroke-miterlimit="10" x1="795.4" y1="1438.2" x2="791" y2="1396.4"/>
		<line fill="none" stroke="#000000" stroke-width="3" stroke-miterlimit="10" x1="869.9" y1="1426.5" x2="861.2" y2="1385.4"/>
		<line fill="none" stroke="#000000" stroke-width="3" stroke-miterlimit="10" x1="942.9" y1="1407" x2="929.9" y2="1367.1"/>
		<line fill="none" stroke="#000000" stroke-width="3" stroke-miterlimit="10" x1="1013.3" y1="1380.1" x2="996.3" y2="1341.7"/>
		<line fill="none" stroke="#000000" stroke-width="3" stroke-miterlimit="10" x1="1080.6" y1="1345.9" x2="1059.6" y2="1309.5"/>
		<line fill="none" stroke="#000000" stroke-width="3" stroke-miterlimit="10" x1="1144" y1="1304.9" x2="1119.3" y2="1270.9"/>
		<line fill="none" stroke="#000000" stroke-width="3" stroke-miterlimit="10" x1="1202.7" y1="1257.5" x2="1174.6" y2="1226.3"/>
		<line fill="none" stroke="#000000" stroke-width="3" stroke-miterlimit="10" x1="1256.1" y1="1204.2" x2="1224.9" y2="1176.1"/>
		<line fill="none" stroke="#000000" stroke-width="3" stroke-miterlimit="10" x1="1303.7" y1="1145.6" x2="1269.7" y2="1120.9"/>
		<line fill="none" stroke="#000000" stroke-width="3" stroke-miterlimit="10" x1="1344.9" y1="1082.4" x2="1308.5" y2="1061.4"/>
		<line fill="none" stroke="#000000" stroke-width="3" stroke-miterlimit="10" x1="1379.3" y1="1015.2" x2="1340.9" y2="998.1"/>
		<line fill="none" stroke="#000000" stroke-width="3" stroke-miterlimit="10" x1="1406.4" y1="944.8" x2="1366.5" y2="931.8"/>
		<line fill="none" stroke="#000000" stroke-width="3" stroke-miterlimit="10" x1="1426" y1="871.9" x2="1385" y2="863.2"/>
		<line fill="none" stroke="#000000" stroke-width="3" stroke-miterlimit="10" x1="1437.9" y1="797.4" x2="1396.2" y2="793"/>
		<line fill="none" stroke="#000000" stroke-width="3" stroke-miterlimit="10" x1="1442" y1="722" x2="1400" y2="722"/>
		<line fill="none" stroke="#000000" stroke-width="3" stroke-miterlimit="10" x1="1438.2" y1="646.6" x2="1396.4" y2="651"/>
		<line fill="none" stroke="#000000" stroke-width="3" stroke-miterlimit="10" x1="1426.5" y1="572.1" x2="1385.4" y2="580.8"/>
		<line fill="none" stroke="#000000" stroke-width="3" stroke-miterlimit="10" x1="1407" y1="499.1" x2="1367.1" y2="512.1"/>
		<line fill="none" stroke="#000000" stroke-width="3" stroke-miterlimit="10" x1="1380.1" y1="428.7" x2="1341.7" y2="445.7"/>
		<line fill="none" stroke="#000000" stroke-width="3" stroke-miterlimit="10" x1="1345.9" y1="361.4" x2="1309.5" y2="382.4"/>
		<line fill="none" stroke="#000000" stroke-width="3" stroke-miterlimit="10" x1="1304.9" y1="298" x2="1270.9" y2="322.7"/>
		<line fill="none" stroke="#000000" stroke-width="3" stroke-miterlimit="10" x1="1257.5" y1="239.3" x2="1226.3" y2="267.4"/>
		<line fill="none" stroke="#000000" stroke-width="3" stroke-miterlimit="10" x1="1204.2" y1="185.9" x2="1176.1" y2="217.1"/>
		<line fill="none" stroke="#000000" stroke-width="3" stroke-miterlimit="10" x1="1145.6" y1="138.3" x2="1120.9" y2="172.3"/>
		<line fill="none" stroke="#000000" stroke-width="3" stroke-miterlimit="10" x1="1082.4" y1="97.1" x2="1061.4" y2="133.5"/>
		<line fill="none" stroke="#000000" stroke-width="3" stroke-miterlimit="10" x1="1015.2" y1="62.7" x2="998.1" y2="101.1"/>
		<line fill="none" stroke="#000000" stroke-width="3" stroke-miterlimit="10" x1="944.8" y1="35.6" x2="931.8" y2="75.5"/>
		<line fill="none" stroke="#000000" stroke-width="3" stroke-miterlimit="10" x1="871.9" y1="16" x2="863.2" y2="57"/>
		<line fill="none" stroke="#000000" stroke-width="3" stroke-miterlimit="10" x1="797.4" y1="4.1" x2="793" y2="45.8"/>
	</g>
</g>
</svg>
