<?xml version="1.0" encoding="utf-8"?>
<!-- Generator: Adobe Illustrator 18.1.1, SVG Export Plug-In . SVG Version: 6.00 Build 0)  -->
<svg version="1.1" id="Layer_1" xmlns="http://www.w3.org/2000/svg" xmlns:xlink="http://www.w3.org/1999/xlink" x="0px" y="0px"
	 viewBox="0 0 456.3 237.9" enable-background="new 0 0 456.3 237.9" xml:space="preserve">
<g>
	<g>
		<g>
			<g>
				<path d="M80.6,24l-4.9,27.8H58.4l1.7-10.4h-6.9l-3,17.4h24.3l-9.1,52.1H23.7L28.5,83h17.4L44,93.4H51L54,76H29.7L38.9,24H80.6z"
					/>
			</g>
			<g>
				<path d="M87.5,24h41.7l-15.3,86.8H72.3l11-62.5h24.3l1.2-6.9H84.4L87.5,24z M92.6,93.4h6.9l4.9-27.8h-6.9L92.6,93.4z"/>
			</g>
			<g>
				<path d="M136.1,24h66l-15.3,86.8h-17.4l12.1-69.4h-6.9l-12.1,69.4h-17.4l12.1-69.4h-6.9l-12.1,69.4h-17.4L136.1,24z"/>
			</g>
		</g>
		<g>
			<g>
				<path fill="none" stroke="#000000" stroke-width="14" d="M80.6,24l-4.9,27.8H58.4l1.7-10.4h-6.9l-3,17.4h24.3l-9.1,52.1H23.7
					L28.5,83h17.4L44,93.4H51L54,76H29.7L38.9,24H80.6z"/>
				<path fill="none" stroke="#000000" stroke-width="14" d="M80.6,24l-4.9,27.8H58.4l1.7-10.4h-6.9l-3,17.4h24.3l-9.1,52.1H23.7
					L28.5,83h17.4L44,93.4H51L54,76H29.7L38.9,24H80.6z"/>
			</g>
			<g>
				<path fill="none" stroke="#000000" stroke-width="14" d="M87.5,24h41.7l-15.3,86.8H72.3l11-62.5h24.3l1.2-6.9H84.4L87.5,24z
					 M92.6,93.4h6.9l4.9-27.8h-6.9L92.6,93.4z"/>
				<path fill="none" stroke="#000000" stroke-width="14" d="M87.5,24h41.7l-15.3,86.8H72.3l11-62.5h24.3l1.2-6.9H84.4L87.5,24z
					 M92.6,93.4h6.9l4.9-27.8h-6.9L92.6,93.4z"/>
			</g>
			<g>
				<path fill="none" stroke="#000000" stroke-width="14" d="M136.1,24h66l-15.3,86.8h-17.4l12.1-69.4h-6.9l-12.1,69.4h-17.4
					l12.1-69.4h-6.9l-12.1,69.4h-17.4L136.1,24z"/>
				<path fill="none" stroke="#000000" stroke-width="14" d="M136.1,24h66l-15.3,86.8h-17.4l12.1-69.4h-6.9l-12.1,69.4h-17.4
					l12.1-69.4h-6.9l-12.1,69.4h-17.4L136.1,24z"/>
			</g>
		</g>
		<g>
			<g>
				<path fill="none" stroke="#ED1C24" stroke-width="8" d="M80.6,24l-4.9,27.8H58.4l1.7-10.4h-6.9l-3,17.4h24.3l-9.1,52.1H23.7
					L28.5,83h17.4L44,93.4H51L54,76H29.7L38.9,24H80.6z"/>
				<path fill="none" stroke="#ED1C24" stroke-width="8" d="M80.6,24l-4.9,27.8H58.4l1.7-10.4h-6.9l-3,17.4h24.3l-9.1,52.1H23.7
					L28.5,83h17.4L44,93.4H51L54,76H29.7L38.9,24H80.6z"/>
			</g>
			<g>
				<path fill="none" stroke="#ED1C24" stroke-width="8" d="M87.5,24h41.7l-15.3,86.8H72.3l11-62.5h24.3l1.2-6.9H84.4L87.5,24z
					 M92.6,93.4h6.9l4.9-27.8h-6.9L92.6,93.4z"/>
				<path fill="none" stroke="#ED1C24" stroke-width="8" d="M87.5,24h41.7l-15.3,86.8H72.3l11-62.5h24.3l1.2-6.9H84.4L87.5,24z
					 M92.6,93.4h6.9l4.9-27.8h-6.9L92.6,93.4z"/>
			</g>
			<g>
				<path fill="none" stroke="#ED1C24" stroke-width="8" d="M136.1,24h66l-15.3,86.8h-17.4l12.1-69.4h-6.9l-12.1,69.4h-17.4
					l12.1-69.4h-6.9l-12.1,69.4h-17.4L136.1,24z"/>
				<path fill="none" stroke="#ED1C24" stroke-width="8" d="M136.1,24h66l-15.3,86.8h-17.4l12.1-69.4h-6.9l-12.1,69.4h-17.4
					l12.1-69.4h-6.9l-12.1,69.4h-17.4L136.1,24z"/>
			</g>
		</g>
		<g>
			<g>
				<path d="M80.6,24l-4.9,27.8H58.4l1.7-10.4h-6.9l-3,17.4h24.3l-9.1,52.1H23.7L28.5,83h17.4L44,93.4H51L54,76H29.7L38.9,24H80.6z"
					/>
				<path d="M80.6,24l-4.9,27.8H58.4l1.7-10.4h-6.9l-3,17.4h24.3l-9.1,52.1H23.7L28.5,83h17.4L44,93.4H51L54,76H29.7L38.9,24H80.6z"
					/>
			</g>
			<g>
				<path d="M87.5,24h41.7l-15.3,86.8H72.3l11-62.5h24.3l1.2-6.9H84.4L87.5,24z M92.6,93.4h6.9l4.9-27.8h-6.9L92.6,93.4z"/>
				<path d="M87.5,24h41.7l-15.3,86.8H72.3l11-62.5h24.3l1.2-6.9H84.4L87.5,24z M92.6,93.4h6.9l4.9-27.8h-6.9L92.6,93.4z"/>
			</g>
			<g>
				<path d="M136.1,24h66l-15.3,86.8h-17.4l12.1-69.4h-6.9l-12.1,69.4h-17.4l12.1-69.4h-6.9l-12.1,69.4h-17.4L136.1,24z"/>
				<path d="M136.1,24h66l-15.3,86.8h-17.4l12.1-69.4h-6.9l-12.1,69.4h-17.4l12.1-69.4h-6.9l-12.1,69.4h-17.4L136.1,24z"/>
			</g>
		</g>
	</g>
	<g>
		<g>
			<g>
				<path d="M75.1,219.6H57.7l17.1-97.2h41.7l-15.3,86.8H76.9L75.1,219.6z M79.9,191.8h6.9l9.1-52.1h-6.9L79.9,191.8z"/>
			</g>
			<g>
				<path d="M123.4,122.4h41.7l-15.3,86.8h-41.7L123.4,122.4z M144.6,139.7h-6.9l-9.1,52.1h6.9L144.6,139.7z"/>
			</g>
			<g>
				<path d="M198.2,112h17.4l-17.1,97.2h-41.7l15.3-86.8h24.3L198.2,112z M193.2,139.7h-6.9l-9.1,52.1h6.9L193.2,139.7z"/>
			</g>
			<g>
				<path d="M205.3,209.2l17.1-97.2h17.4l-17.1,97.2H205.3z"/>
			</g>
			<g>
				<path d="M244.9,122.4h41.7l-15.3,86.8h-41.7L244.9,122.4z M266.1,139.7h-6.9l-9.1,52.1h6.9L266.1,139.7z"/>
			</g>
			<g>
				<path d="M279.4,202.2h24.3l1.3-6.9h-24.3l12.8-72.9h41.7L318,219.6h-41.7L279.4,202.2z M301,177.9h6.9l6.7-38.2h-6.9L301,177.9z
					"/>
			</g>
			<g>
				<path d="M342.1,122.4h41.7l-15.3,86.8h-41.7l11-62.5h24.3l1.2-6.9H339L342.1,122.4z M347.2,191.8h6.9L359,164h-6.9L347.2,191.8z
					"/>
			</g>
			<g>
				<path d="M424.4,167.5h-24.3l-1.3,6.9h24.3l-6,34.7h-17.2l3-17.4h-7.1l-3,17.4h-17.4l15.3-86.8h41.7L424.4,167.5z M410.1,150.1
					l1.7-10.4h-6.9l-1.7,10.4H410.1z"/>
			</g>
		</g>
		<g>
			<g>
				<path fill="none" stroke="#000000" stroke-width="14" d="M75.1,219.6H57.7l17.1-97.2h41.7l-15.3,86.8H76.9L75.1,219.6z
					 M79.9,191.8h6.9l9.1-52.1h-6.9L79.9,191.8z"/>
				<path fill="none" stroke="#000000" stroke-width="14" d="M75.1,219.6H57.7l17.1-97.2h41.7l-15.3,86.8H76.9L75.1,219.6z
					 M79.9,191.8h6.9l9.1-52.1h-6.9L79.9,191.8z"/>
			</g>
			<g>
				<path fill="none" stroke="#000000" stroke-width="14" d="M123.4,122.4h41.7l-15.3,86.8h-41.7L123.4,122.4z M144.6,139.7h-6.9
					l-9.1,52.1h6.9L144.6,139.7z"/>
				<path fill="none" stroke="#000000" stroke-width="14" d="M123.4,122.4h41.7l-15.3,86.8h-41.7L123.4,122.4z M144.6,139.7h-6.9
					l-9.1,52.1h6.9L144.6,139.7z"/>
			</g>
			<g>
				<path fill="none" stroke="#000000" stroke-width="14" d="M198.2,112h17.4l-17.1,97.2h-41.7l15.3-86.8h24.3L198.2,112z
					 M193.2,139.7h-6.9l-9.1,52.1h6.9L193.2,139.7z"/>
				<path fill="none" stroke="#000000" stroke-width="14" d="M198.2,112h17.4l-17.1,97.2h-41.7l15.3-86.8h24.3L198.2,112z
					 M193.2,139.7h-6.9l-9.1,52.1h6.9L193.2,139.7z"/>
			</g>
			<g>
				<path fill="none" stroke="#000000" stroke-width="14" d="M205.3,209.2l17.1-97.2h17.4l-17.1,97.2H205.3z"/>
				<path fill="none" stroke="#000000" stroke-width="14" d="M205.3,209.2l17.1-97.2h17.4l-17.1,97.2H205.3z"/>
			</g>
			<g>
				<path fill="none" stroke="#000000" stroke-width="14" d="M244.9,122.4h41.7l-15.3,86.8h-41.7L244.9,122.4z M266.1,139.7h-6.9
					l-9.1,52.1h6.9L266.1,139.7z"/>
				<path fill="none" stroke="#000000" stroke-width="14" d="M244.9,122.4h41.7l-15.3,86.8h-41.7L244.9,122.4z M266.1,139.7h-6.9
					l-9.1,52.1h6.9L266.1,139.7z"/>
			</g>
			<g>
				<path fill="none" stroke="#000000" stroke-width="14" d="M279.4,202.2h24.3l1.3-6.9h-24.3l12.8-72.9h41.7L318,219.6h-41.7
					L279.4,202.2z M301,177.9h6.9l6.7-38.2h-6.9L301,177.9z"/>
				<path fill="none" stroke="#000000" stroke-width="14" d="M279.4,202.2h24.3l1.3-6.9h-24.3l12.8-72.9h41.7L318,219.6h-41.7
					L279.4,202.2z M301,177.9h6.9l6.7-38.2h-6.9L301,177.9z"/>
			</g>
			<g>
				<path fill="none" stroke="#000000" stroke-width="14" d="M342.1,122.4h41.7l-15.3,86.8h-41.7l11-62.5h24.3l1.2-6.9H339
					L342.1,122.4z M347.2,191.8h6.9L359,164h-6.9L347.2,191.8z"/>
				<path fill="none" stroke="#000000" stroke-width="14" d="M342.1,122.4h41.7l-15.3,86.8h-41.7l11-62.5h24.3l1.2-6.9H339
					L342.1,122.4z M347.2,191.8h6.9L359,164h-6.9L347.2,191.8z"/>
			</g>
			<g>
				<path fill="none" stroke="#000000" stroke-width="14" d="M424.4,167.5h-24.3l-1.3,6.9h24.3l-6,34.7h-17.2l3-17.4h-7.1l-3,17.4
					h-17.4l15.3-86.8h41.7L424.4,167.5z M410.1,150.1l1.7-10.4h-6.9l-1.7,10.4H410.1z"/>
				<path fill="none" stroke="#000000" stroke-width="14" d="M424.4,167.5h-24.3l-1.3,6.9h24.3l-6,34.7h-17.2l3-17.4h-7.1l-3,17.4
					h-17.4l15.3-86.8h41.7L424.4,167.5z M410.1,150.1l1.7-10.4h-6.9l-1.7,10.4H410.1z"/>
			</g>
		</g>
		<g>
			<g>
				<path fill="none" stroke="#ED1C24" stroke-width="8" d="M75.1,219.6H57.7l17.1-97.2h41.7l-15.3,86.8H76.9L75.1,219.6z
					 M79.9,191.8h6.9l9.1-52.1h-6.9L79.9,191.8z"/>
				<path fill="none" stroke="#ED1C24" stroke-width="8" d="M75.1,219.6H57.7l17.1-97.2h41.7l-15.3,86.8H76.9L75.1,219.6z
					 M79.9,191.8h6.9l9.1-52.1h-6.9L79.9,191.8z"/>
			</g>
			<g>
				<path fill="none" stroke="#ED1C24" stroke-width="8" d="M123.4,122.4h41.7l-15.3,86.8h-41.7L123.4,122.4z M144.6,139.7h-6.9
					l-9.1,52.1h6.9L144.6,139.7z"/>
				<path fill="none" stroke="#ED1C24" stroke-width="8" d="M123.4,122.4h41.7l-15.3,86.8h-41.7L123.4,122.4z M144.6,139.7h-6.9
					l-9.1,52.1h6.9L144.6,139.7z"/>
			</g>
			<g>
				<path fill="none" stroke="#ED1C24" stroke-width="8" d="M198.2,112h17.4l-17.1,97.2h-41.7l15.3-86.8h24.3L198.2,112z
					 M193.2,139.7h-6.9l-9.1,52.1h6.9L193.2,139.7z"/>
				<path fill="none" stroke="#ED1C24" stroke-width="8" d="M198.2,112h17.4l-17.1,97.2h-41.7l15.3-86.8h24.3L198.2,112z
					 M193.2,139.7h-6.9l-9.1,52.1h6.9L193.2,139.7z"/>
			</g>
			<g>
				<path fill="none" stroke="#ED1C24" stroke-width="8" d="M205.3,209.2l17.1-97.2h17.4l-17.1,97.2H205.3z"/>
				<path fill="none" stroke="#ED1C24" stroke-width="8" d="M205.3,209.2l17.1-97.2h17.4l-17.1,97.2H205.3z"/>
			</g>
			<g>
				<path fill="none" stroke="#ED1C24" stroke-width="8" d="M244.9,122.4h41.7l-15.3,86.8h-41.7L244.9,122.4z M266.1,139.7h-6.9
					l-9.1,52.1h6.9L266.1,139.7z"/>
				<path fill="none" stroke="#ED1C24" stroke-width="8" d="M244.9,122.4h41.7l-15.3,86.8h-41.7L244.9,122.4z M266.1,139.7h-6.9
					l-9.1,52.1h6.9L266.1,139.7z"/>
			</g>
			<g>
				<path fill="none" stroke="#ED1C24" stroke-width="8" d="M279.4,202.2h24.3l1.3-6.9h-24.3l12.8-72.9h41.7L318,219.6h-41.7
					L279.4,202.2z M301,177.9h6.9l6.7-38.2h-6.9L301,177.9z"/>
				<path fill="none" stroke="#ED1C24" stroke-width="8" d="M279.4,202.2h24.3l1.3-6.9h-24.3l12.8-72.9h41.7L318,219.6h-41.7
					L279.4,202.2z M301,177.9h6.9l6.7-38.2h-6.9L301,177.9z"/>
			</g>
			<g>
				<path fill="none" stroke="#ED1C24" stroke-width="8" d="M342.1,122.4h41.7l-15.3,86.8h-41.7l11-62.5h24.3l1.2-6.9H339
					L342.1,122.4z M347.2,191.8h6.9L359,164h-6.9L347.2,191.8z"/>
				<path fill="none" stroke="#ED1C24" stroke-width="8" d="M342.1,122.4h41.7l-15.3,86.8h-41.7l11-62.5h24.3l1.2-6.9H339
					L342.1,122.4z M347.2,191.8h6.9L359,164h-6.9L347.2,191.8z"/>
			</g>
			<g>
				<path fill="none" stroke="#ED1C24" stroke-width="8" d="M424.4,167.5h-24.3l-1.3,6.9h24.3l-6,34.7h-17.2l3-17.4h-7.1l-3,17.4
					h-17.4l15.3-86.8h41.7L424.4,167.5z M410.1,150.1l1.7-10.4h-6.9l-1.7,10.4H410.1z"/>
				<path fill="none" stroke="#ED1C24" stroke-width="8" d="M424.4,167.5h-24.3l-1.3,6.9h24.3l-6,34.7h-17.2l3-17.4h-7.1l-3,17.4
					h-17.4l15.3-86.8h41.7L424.4,167.5z M410.1,150.1l1.7-10.4h-6.9l-1.7,10.4H410.1z"/>
			</g>
		</g>
		<g>
			<g>
				<path d="M75.1,219.6H57.7l17.1-97.2h41.7l-15.3,86.8H76.9L75.1,219.6z M79.9,191.8h6.9l9.1-52.1h-6.9L79.9,191.8z"/>
				<path d="M75.1,219.6H57.7l17.1-97.2h41.7l-15.3,86.8H76.9L75.1,219.6z M79.9,191.8h6.9l9.1-52.1h-6.9L79.9,191.8z"/>
			</g>
			<g>
				<path d="M123.4,122.4h41.7l-15.3,86.8h-41.7L123.4,122.4z M144.6,139.7h-6.9l-9.1,52.1h6.9L144.6,139.7z"/>
				<path d="M123.4,122.4h41.7l-15.3,86.8h-41.7L123.4,122.4z M144.6,139.7h-6.9l-9.1,52.1h6.9L144.6,139.7z"/>
			</g>
			<g>
				<path d="M198.2,112h17.4l-17.1,97.2h-41.7l15.3-86.8h24.3L198.2,112z M193.2,139.7h-6.9l-9.1,52.1h6.9L193.2,139.7z"/>
				<path d="M198.2,112h17.4l-17.1,97.2h-41.7l15.3-86.8h24.3L198.2,112z M193.2,139.7h-6.9l-9.1,52.1h6.9L193.2,139.7z"/>
			</g>
			<g>
				<path d="M205.3,209.2l17.1-97.2h17.4l-17.1,97.2H205.3z"/>
				<path d="M205.3,209.2l17.1-97.2h17.4l-17.1,97.2H205.3z"/>
			</g>
			<g>
				<path d="M244.9,122.4h41.7l-15.3,86.8h-41.7L244.9,122.4z M266.1,139.7h-6.9l-9.1,52.1h6.9L266.1,139.7z"/>
				<path d="M244.9,122.4h41.7l-15.3,86.8h-41.7L244.9,122.4z M266.1,139.7h-6.9l-9.1,52.1h6.9L266.1,139.7z"/>
			</g>
			<g>
				<path d="M279.4,202.2h24.3l1.3-6.9h-24.3l12.8-72.9h41.7L318,219.6h-41.7L279.4,202.2z M301,177.9h6.9l6.7-38.2h-6.9L301,177.9z
					"/>
				<path d="M279.4,202.2h24.3l1.3-6.9h-24.3l12.8-72.9h41.7L318,219.6h-41.7L279.4,202.2z M301,177.9h6.9l6.7-38.2h-6.9L301,177.9z
					"/>
			</g>
			<g>
				<path d="M342.1,122.4h41.7l-15.3,86.8h-41.7l11-62.5h24.3l1.2-6.9H339L342.1,122.4z M347.2,191.8h6.9L359,164h-6.9L347.2,191.8z
					"/>
				<path d="M342.1,122.4h41.7l-15.3,86.8h-41.7l11-62.5h24.3l1.2-6.9H339L342.1,122.4z M347.2,191.8h6.9L359,164h-6.9L347.2,191.8z
					"/>
			</g>
			<g>
				<path d="M424.4,167.5h-24.3l-1.3,6.9h24.3l-6,34.7h-17.2l3-17.4h-7.1l-3,17.4h-17.4l15.3-86.8h41.7L424.4,167.5z M410.1,150.1
					l1.7-10.4h-6.9l-1.7,10.4H410.1z"/>
				<path d="M424.4,167.5h-24.3l-1.3,6.9h24.3l-6,34.7h-17.2l3-17.4h-7.1l-3,17.4h-17.4l15.3-86.8h41.7L424.4,167.5z M410.1,150.1
					l1.7-10.4h-6.9l-1.7,10.4H410.1z"/>
			</g>
		</g>
	</g>
</g>
</svg>
