<?xml version="1.0" encoding="utf-8"?>
<!-- Generator: Adobe Illustrator 18.1.1, SVG Export Plug-In . SVG Version: 6.00 Build 0)  -->
<svg version="1.1" id="Layer_1" xmlns="http://www.w3.org/2000/svg" xmlns:xlink="http://www.w3.org/1999/xlink" x="0px" y="0px"
	 viewBox="0 0 7663.6 7301" enable-background="new 0 0 7663.6 7301" xml:space="preserve">
<g id="Heart" display="none">
	<path display="inline" fill="#FAA31A" d="M5843,183c-117.8-11.5-227.9-17.1-331.3-17.1c-828.2,0-1225.2,357.9-1680,899.8
		c-454.8-541.9-852-899.8-1680.1-899.8c-103.4,0-213.5,5.6-331.3,17.1C1103.7,253,275,909.1,174.1,2166.5v418.5
		c94,1203.4,1002.4,2687.8,3657.6,4550.2c2655.1-1862.4,3563.8-3346.8,3657.8-4550.2v-418.5C7388.4,909.1,6559.7,253,5843,183z"/>
</g>
<g id="Star" display="none">
	<polygon display="inline" fill="#FAA31A" points="3866.7,399.5 4930.7,2555.4 7309.8,2901.1 5588.2,4579.2 5994.7,6948.8 
		3866.7,5830 1738.7,6948.8 2145.1,4579.2 423.5,2901.1 2802.7,2555.4 	"/>
</g>
<g id="Follow" display="none">
	<g display="inline">
		<path fill="#FAA31A" d="M2656.8,2173.9h292.6v-369.1c0-384.1,48.8-689.5,146.3-916.1c97.5-226.6,262.6-391.6,495.2-495.2
			c232.5-103.5,551.5-155.3,956.6-155.3c717.3,0,1075.9,175.6,1075.9,526.7c0,114.1-37.5,211.6-112.5,292.6
			c-75.1,81-163.6,121.5-265.6,121.5c-48,0-130.5-9-247.6-27c-117-18-216.1-27-297.1-27c-222.1,0-364.7,65.3-427.7,195.8
			c-63,130.6-94.5,317.4-94.5,560.5v292.6h301.6c468.2,0,702.3,141.1,702.3,423.2c0,201.1-62.3,328.6-186.8,382.6
			c-124.6,54-296.4,81-515.5,81h-301.6v3254.7c0,243.1-57.9,428.4-173.3,556c-115.6,127.5-264.9,191.3-448,191.3
			c-174.1,0-318.9-63.8-434.4-191.3c-115.6-127.5-173.3-312.9-173.3-556V3060.8h-337.6c-183.1,0-324.1-41.2-423.2-123.8
			c-99-82.5-148.5-189.8-148.5-321.9C2040.1,2321,2245.7,2173.9,2656.8,2173.9z"/>
	</g>
</g>
<g id="Image_1_" display="none">
	<line display="inline" fill="none" x1="3542.8" y1="1074.5" x2="3542.8" y2="1312.6"/>
	<g id="Image" display="inline">
		<path fill="#FAA31A" stroke="#000000" stroke-miterlimit="10" d="M3542.8,1384c-554.5,0-1004,449.5-1004,1004
			c0,300.1,131.7,569.5,340.5,753.5l481.9-529.3l281,288.4l678.3-1147.5C4136.5,1527.8,3856.5,1384,3542.8,1384z"/>
		<path fill="#FAA31A" stroke="#000000" stroke-miterlimit="10" d="M6293,465.7H1269.4c-407.8,0-741.5,333.7-741.5,741.5v5023.6
			c0,407.8,333.7,741.5,741.5,741.5H6293c407.8,0,741.5-333.7,741.5-741.5V1207.2C7034.5,799.4,6700.9,465.7,6293,465.7z
			 M6602.4,3734.3L4618.2,1495.6l-952.4,1611.1l-301.6-309.5l-888.9,976.2l-388.9-634.9L960.1,4330.5V1319.3
			c0-231.8,189.7-421.5,421.5-421.5h4799.3c231.8,0,421.5,189.7,421.5,421.5V3734.3z"/>
		<path fill="#FAA31A" stroke="#000000" stroke-miterlimit="10" d="M4508.5,1439.7c-14.8-4.7-31.7-1.5-44,9.7l-175.6,160.8
			c-18.3,16.8-19.6,45.3-2.8,63.6c16.8,18.3,45.3,19.6,63.6,2.8l175.6-160.8c18.3-16.8,19.6-45.3,2.8-63.6
			C4522.6,1446.2,4515.8,1442,4508.5,1439.7z"/>
		<path fill="#FAA31A" stroke="#000000" stroke-miterlimit="10" d="M3836.4,1387.2c23.7,7.5,49-5.7,56.5-29.4l71.6-227.1
			c7.5-23.7-5.7-49-29.4-56.5s-49,5.7-56.5,29.4l-71.6,227.1C3799.5,1354.4,3812.7,1379.7,3836.4,1387.2z"/>
		<path fill="#FAA31A" stroke="#000000" stroke-miterlimit="10" d="M3249.8,1329.6c5.4,24.3,29.4,39.6,53.7,34.2
			c24.3-5.4,39.6-29.4,34.2-53.7l-51.5-232.5c-3.6-16.3-15.6-28.5-30.4-33.2c-7.3-2.3-15.2-2.8-23.2-1
			c-24.3,5.4-39.6,29.4-34.2,53.7L3249.8,1329.6z"/>
		<path fill="#FAA31A" stroke="#000000" stroke-miterlimit="10" d="M2766.8,1607.3c16.8,18.3,45.3,19.6,63.6,2.8
			c18.3-16.8,19.6-45.3,2.8-63.6l-160.8-175.6c-5.5-6-12.3-10.2-19.6-12.5c-14.8-4.7-31.7-1.5-44,9.7c-18.3,16.8-19.6,45.3-2.8,63.6
			L2766.8,1607.3z"/>
		<path fill="#FAA31A" stroke="#000000" stroke-miterlimit="10" d="M2260.2,2017.6l227.1,71.6c23.7,7.5,49-5.7,56.5-29.4
			c7.5-23.7-5.7-49-29.4-56.5l-227.1-71.6c-23.7-7.5-49,5.7-56.5,29.4C2223.3,1984.8,2236.5,2010.1,2260.2,2017.6z"/>
		<path fill="#FAA31A" stroke="#000000" stroke-miterlimit="10" d="M2520.3,2592.7c-3.6-16.3-15.6-28.5-30.4-33.2
			c-7.3-2.3-15.2-2.8-23.2-1l-232.5,51.5c-24.3,5.4-39.6,29.4-34.2,53.7c5.4,24.3,29.4,39.6,53.7,34.2l232.5-51.5
			C2510.4,2641,2525.7,2617,2520.3,2592.7z"/>
		<path fill="#FAA31A" stroke="#000000" stroke-miterlimit="10" d="M2746.9,3053.3c-14.8-4.7-31.7-1.5-44,9.7l-175.6,160.8
			c-18.3,16.8-19.6,45.3-2.8,63.6c16.8,18.3,45.3,19.6,63.6,2.8l175.6-160.8c18.3-16.8,19.6-45.3,2.8-63.6
			C2761,3059.8,2754.2,3055.6,2746.9,3053.3z"/>
	</g>
</g>
<g id="home" display="none">
	<g display="inline">
		<path fill="#FAA31A" d="M7386.4,2965.5l-3210.5-2648c-199.1-164.2-486.5-164.3-685.7-0.3L277.3,2962.3
			c-42.2,34.8-45.8,98.2-7.7,137.5l114.1,117.8c34.4,35.5,90.6,38.2,128.2,6l745.9-638c16.8-14.3,42.5-1.5,41.2,20.5
			c-1,16.7-1.5,33.5-1.5,50.4v3342.8c0,482.3,394.6,876.8,876.8,876.8H5492c482.3,0,876.8-394.6,876.8-876.8V2656.5
			c0-0.2,0-0.4,0-0.5c0-20.8,23.9-32.6,40.3-19.8l759.6,590.5c39.2,30.5,95.3,25.1,128-12.3l100.5-114.9
			C7432.1,3059.7,7427.1,2999.1,7386.4,2965.5z M4666.2,6619.3c0,106.5-87.2,193.7-193.7,193.7H3191.2
			c-106.5,0-193.7-87.2-193.7-193.7V3728.8c0-106.5,87.2-193.7,193.7-193.7h1281.3c106.5,0,193.7,87.2,193.7,193.7V6619.3z"/>
		<circle fill="#FAA31A" cx="3258.4" cy="5110.2" r="146.8"/>
	</g>
</g>
<g id="Recent">
	<g>
		<path fill="#FAA31A" d="M3831.8,289.8c-1856.1,0-3360.7,1504.6-3360.7,3360.7s1504.6,3360.7,3360.7,3360.7
			s3360.7-1504.6,3360.7-3360.7S5687.9,289.8,3831.8,289.8z M6578.4,4810.6c-74.7,176.5-167.1,346.8-274.7,506.2
			c-106.7,157.9-229.2,306.4-364.2,441.4c-135,135-283.5,257.5-441.4,364.2c-159.3,107.6-329.6,200.1-506.2,274.7
			c-179.7,76-367.8,134.4-559,173.5c-196.4,40.2-398.6,60.6-601.1,60.6c-202.5,0-404.7-20.4-601.1-60.6
			c-191.2-39.1-379.3-97.5-559-173.5c-176.5-74.7-346.8-167.1-506.2-274.7c-157.9-106.7-306.4-229.2-441.4-364.2
			c-135-135-257.5-283.5-364.2-441.4c-107.6-159.3-200.1-329.6-274.7-506.2c-76-179.7-134.4-367.8-173.5-559
			c-40.2-196.4-60.6-398.6-60.6-601.1c0-202.5,20.4-404.7,60.6-601.1c39.1-191.2,97.5-379.3,173.5-559
			c74.7-176.5,167.1-346.8,274.7-506.2c106.7-157.9,229.2-306.4,364.2-441.4c135-135,283.5-257.5,441.4-364.2
			c159.3-107.6,329.6-200.1,506.2-274.7c179.7-76,367.8-134.4,559-173.5c196.4-40.2,398.6-60.6,601.1-60.6
			c202.5,0,404.7,20.4,601.1,60.6c191.2,39.1,379.3,97.5,559,173.5c176.5,74.7,346.8,167.1,506.2,274.7
			c157.9,106.7,306.4,229.2,441.4,364.2c135,135,257.5,283.5,364.2,441.4c107.6,159.3,200.1,329.6,274.7,506.2
			c76,179.7,134.4,367.8,173.5,559c40.2,196.4,60.6,398.6,60.6,601.1c0,202.5-20.4,404.7-60.6,601.1
			C6712.8,4442.8,6654.5,4630.9,6578.4,4810.6z"/>
		<path fill="#FAA31A" d="M3831.8,1773.4c-50.4,0-98.7,20-134.4,55.6c-35.6,35.6-55.6,84-55.6,134.4v1652.7l-471.3,1256.8
			c-17.7,47.2-15.9,99.5,4.9,145.3c20.8,45.9,59.1,81.6,106.3,99.3c21.5,8.1,44.1,12.1,66.7,12.1c26.9,0,53.7-5.7,78.6-17
			c45.9-20.9,81.6-59.1,99.3-106.3l483.4-1289c0.2-0.4,0.3-0.8,0.5-1.3c0.3-0.8,0.6-1.5,0.8-2.3c0.2-0.7,0.5-1.4,0.7-2.1
			c0.3-0.8,0.5-1.5,0.8-2.3c0.2-0.7,0.5-1.4,0.7-2.2c0.2-0.8,0.5-1.5,0.7-2.3c0.2-0.7,0.4-1.5,0.6-2.2c0.2-0.8,0.4-1.5,0.6-2.3
			c0.2-0.7,0.4-1.5,0.6-2.2c0.2-0.8,0.4-1.5,0.6-2.3c0.2-0.8,0.4-1.5,0.5-2.3c0.2-0.8,0.3-1.5,0.5-2.3c0.2-0.8,0.3-1.5,0.5-2.3
			c0.2-0.8,0.3-1.5,0.5-2.3c0.1-0.8,0.3-1.5,0.4-2.3c0.1-0.8,0.3-1.5,0.4-2.3c0.1-0.8,0.3-1.5,0.4-2.3c0.1-0.8,0.2-1.5,0.3-2.3
			c0.1-0.8,0.2-1.6,0.3-2.3c0.1-0.8,0.2-1.5,0.3-2.3c0.1-0.8,0.2-1.6,0.3-2.3c0.1-0.8,0.2-1.5,0.2-2.3c0.1-0.8,0.1-1.6,0.2-2.4
			c0.1-0.8,0.1-1.5,0.2-2.3c0.1-0.8,0.1-1.6,0.1-2.4c0-0.8,0.1-1.5,0.1-2.3c0-0.8,0.1-1.6,0.1-2.4c0-0.7,0-1.5,0.1-2.2
			c0-0.8,0-1.6,0-2.4c0-0.5,0-0.9,0-1.4V1963.4c0-50.4-20-98.7-55.7-134.4C3930.5,1793.4,3882.2,1773.4,3831.8,1773.4z"/>
		<path fill="#FAA31A" d="M1561.6,3784.9c35.6-35.6,55.6-84,55.6-134.4c0-50.4-20-98.7-55.6-134.4c-35.6-35.6-84-55.6-134.4-55.6
			h-293.7c-50.4,0-98.7,20-134.4,55.6c-35.6,35.6-55.6,84-55.6,134.4c0,50.4,20,98.7,55.6,134.4c35.6,35.6,84,55.6,134.4,55.6h293.7
			C1477.6,3840.5,1526,3820.5,1561.6,3784.9z"/>
		<path fill="#FAA31A" d="M1798.6,4669.3c-48.7-13-100.5-6.2-144.2,19l-254.3,146.8c-43.6,25.2-75.5,66.7-88.5,115.4
			c-13,48.7-6.2,100.5,19,144.2c25.2,43.6,66.7,75.5,115.4,88.5c16.2,4.3,32.7,6.5,49.2,6.5c33.1,0,65.9-8.6,95-25.5l254.3-146.8
			c43.6-25.2,75.5-66.7,88.5-115.4c13-48.7,6.2-100.5-19-144.2C1888.8,4714.2,1847.3,4682.3,1798.6,4669.3z"/>
		<path fill="#FAA31A" d="M2724.5,5568.4c-43.6-25.2-95.5-32-144.2-19c-48.7,13-90.2,44.9-115.4,88.5l-146.8,254.3
			c-25.2,43.6-32,95.5-19,144.2s44.9,90.2,88.5,115.4c29.1,16.8,61.9,25.5,95,25.5c16.5,0,33-2.1,49.2-6.5
			c48.7-13,90.2-44.9,115.4-88.5l146.8-254.3c25.2-43.6,32-95.5,19-144.2S2768.2,5593.6,2724.5,5568.4z"/>
		<path fill="#FAA31A" d="M3831.8,5865.1c-50.4,0-98.7,20-134.4,55.6c-35.6,35.6-55.6,84-55.6,134.4v293.7
			c0,50.4,20,98.7,55.6,134.4c35.6,35.6,84,55.6,134.4,55.6c50.4,0,98.7-20,134.4-55.6s55.6-84,55.6-134.4v-293.7
			c0-50.4-20-98.7-55.6-134.4S3882.2,5865.1,3831.8,5865.1z"/>
		<path fill="#FAA31A" d="M5198.7,5637.9c-25.2-43.6-66.7-75.5-115.4-88.5c-48.7-13-100.5-6.2-144.2,19
			c-43.6,25.2-75.5,66.7-88.5,115.4c-13,48.7-6.2,100.5,19,144.2l146.8,254.3c25.2,43.6,66.7,75.5,115.4,88.5
			c16.2,4.3,32.7,6.5,49.2,6.5c33.1,0,65.9-8.6,95-25.5c43.6-25.2,75.5-66.7,88.5-115.4c13-48.7,6.2-100.5-19-144.2L5198.7,5637.9z"
			/>
		<path fill="#FAA31A" d="M6263.6,4835.1l-254.3-146.8c-43.6-25.2-95.5-32-144.2-19c-48.7,13-90.2,44.9-115.4,88.5
			s-32,95.5-19,144.2c13,48.7,44.9,90.2,88.5,115.4l254.3,146.8c29.1,16.8,61.9,25.5,95,25.5c16.5,0,33-2.1,49.2-6.5
			c48.7-13,90.2-44.9,115.4-88.5s32-95.5,19-144.2C6339,4901.8,6307.2,4860.3,6263.6,4835.1z"/>
		<path fill="#FAA31A" d="M6530,3460.5h-293.7c-50.4,0-98.7,20-134.4,55.6c-35.6,35.6-55.6,84-55.6,134.4c0,50.4,20,98.7,55.6,134.4
			s84,55.6,134.4,55.6H6530c50.4,0,98.7-20,134.4-55.6s55.6-84,55.6-134.4c0-50.4-20-98.7-55.6-134.4
			C6628.8,3480.5,6580.4,3460.5,6530,3460.5z"/>
		<path fill="#FAA31A" d="M5865.1,2631.8c16.2,4.3,32.7,6.5,49.2,6.5c33.1,0,65.9-8.6,95-25.5l254.3-146.8
			c43.6-25.2,75.5-66.7,88.5-115.4c13-48.7,6.2-100.5-19-144.2s-66.7-75.5-115.4-88.5c-48.7-13-100.5-6.2-144.2,19l-254.3,146.8
			c-43.6,25.2-75.5,66.7-88.5,115.4c-13,48.7-6.2,100.5,19,144.2S5816.4,2618.7,5865.1,2631.8z"/>
		<path fill="#FAA31A" d="M5275.9,1149.2c-43.6-25.2-95.5-32-144.2-19c-48.7,13-90.2,44.9-115.4,88.5l-146.8,254.3
			c-25.2,43.6-32,95.5-19,144.2s44.9,90.2,88.5,115.4c29.1,16.8,61.9,25.5,95,25.5c16.5,0,33-2.1,49.2-6.5
			c48.7-13,90.2-44.9,115.4-88.5l146.8-254.3c25.2-43.6,32-95.5,19-144.2C5351.4,1215.9,5319.6,1174.4,5275.9,1149.2z"/>
		<path fill="#FAA31A" d="M3831.8,762.3c-50.4,0-98.7,20-134.4,55.6c-35.6,35.6-55.6,84-55.6,134.4v293.7c0,50.4,20,98.7,55.6,134.4
			c35.6,35.6,84,55.6,134.4,55.6c50.4,0,98.7-20,134.4-55.6c35.6-35.6,55.6-84,55.6-134.4V952.3c0-50.4-20-98.7-55.6-134.4
			C3930.5,782.3,3882.2,762.3,3831.8,762.3z"/>
		<path fill="#FAA31A" d="M2647.3,1218.8c-25.2-43.6-66.7-75.5-115.4-88.5c-48.7-13-100.5-6.2-144.2,19s-75.5,66.7-88.5,115.4
			c-13,48.7-6.2,100.5,19,144.2l146.8,254.3c25.2,43.6,66.7,75.5,115.4,88.5c16.2,4.3,32.7,6.5,49.2,6.5c33.1,0,65.9-8.6,95-25.5
			c43.6-25.2,75.5-66.7,88.5-115.4c13-48.7,6.2-100.5-19-144.2L2647.3,1218.8z"/>
		<path fill="#FAA31A" d="M1844.4,2283.7l-254.3-146.8c-43.6-25.2-95.5-32-144.2-19c-48.7,13-90.2,44.9-115.4,88.5
			c-25.2,43.6-32,95.5-19,144.2c13,48.7,44.9,90.2,88.5,115.4l254.3,146.8c29.1,16.8,61.9,25.5,95,25.5c16.5,0,33-2.1,49.2-6.5
			c48.7-13,90.2-44.9,115.4-88.5c25.2-43.6,32-95.5,19-144.2C1919.9,2350.4,1888,2308.9,1844.4,2283.7z"/>
	</g>
</g>
</svg>
