<?xml version="1.0" encoding="utf-8"?>
<!-- Generator: Adobe Illustrator 18.1.1, SVG Export Plug-In . SVG Version: 6.00 Build 0)  -->
<svg version="1.1" id="Layer_1" xmlns="http://www.w3.org/2000/svg" xmlns:xlink="http://www.w3.org/1999/xlink" x="0px" y="0px"
	 viewBox="0 0 1024 1024" enable-background="new 0 0 1024 1024" xml:space="preserve">
<g id="Heart" display="none">
	<path display="inline" fill="#FAA31A" d="M780.7,48.7c-15.7-1.5-30.5-2.3-44.3-2.3c-110.7,0-163.7,47.8-224.5,120.2
		C451.2,94.2,398.1,46.4,287.5,46.4c-13.8,0-28.5,0.7-44.3,2.3c-95.8,9.4-206.5,97-220,265v55.9c12.6,160.8,133.9,359.1,488.7,608
		c354.8-248.9,476.2-447.2,488.8-608v-55.9C987.2,145.7,876.5,58,780.7,48.7z"/>
</g>
<g id="Star" display="none">
	<polygon display="inline" fill="#FAA31A" points="516.7,77.6 658.8,365.7 976.7,411.9 746.7,636.1 801,952.7 516.7,803.2 
		232.3,952.7 286.6,636.1 56.6,411.9 374.5,365.7 	"/>
</g>
<g id="Follow" display="none">
	<g display="inline">
		<path fill="#FAA31A" d="M355,314.7h39.1v-49.3c0-51.3,6.5-92.1,19.5-122.4s35.1-52.3,66.2-66.2C510.9,63,553.5,56,607.6,56
			c95.8,0,143.8,23.5,143.8,70.4c0,15.2-5,28.3-15,39.1c-10,10.8-21.9,16.2-35.5,16.2c-6.4,0-17.4-1.2-33.1-3.6
			c-15.6-2.4-28.9-3.6-39.7-3.6c-29.7,0-48.7,8.7-57.1,26.2c-8.4,17.5-12.6,42.4-12.6,74.9v39.1h40.3c62.6,0,93.8,18.9,93.8,56.5
			c0,26.9-8.3,43.9-25,51.1c-16.6,7.2-39.6,10.8-68.9,10.8h-40.3V868c0,32.5-7.7,57.2-23.2,74.3c-15.4,17-35.4,25.6-59.9,25.6
			c-23.3,0-42.6-8.5-58-25.6c-15.4-17-23.2-41.8-23.2-74.3V433.2h-45c-24.5,0-43.3-5.5-56.5-16.5s-19.8-25.4-19.8-43
			C272.6,334.4,300.1,314.7,355,314.7z"/>
	</g>
</g>
<g id="Image_1_" display="none">
	<line display="inline" fill="none" x1="473.4" y1="167.8" x2="473.4" y2="199.6"/>
	<g id="Image" display="inline">
		<path fill="#FAA31A" stroke="#000000" stroke-miterlimit="10" d="M473.4,209.2c-74.1,0-134.2,60.1-134.2,134.2
			c0,40.1,17.6,76.1,45.5,100.7l64.4-70.7l37.5,38.5l90.6-153.3C552.7,228.4,515.3,209.2,473.4,209.2z"/>
		<path fill="#FAA31A" stroke="#000000" stroke-miterlimit="10" d="M840.9,86.5H169.6c-54.5,0-99.1,44.6-99.1,99.1v671.2
			c0,54.5,44.6,99.1,99.1,99.1h671.2c54.5,0,99.1-44.6,99.1-99.1V185.5C939.9,131,895.4,86.5,840.9,86.5z M882.2,523.2L617.1,224.1
			L489.8,439.3L449.5,398L330.7,528.4l-52-84.8L128.3,602.9V200.5c0-31,25.3-56.3,56.3-56.3h641.3c31,0,56.3,25.3,56.3,56.3V523.2z"
			/>
		<path fill="#FAA31A" stroke="#000000" stroke-miterlimit="10" d="M602.4,216.6c-2-0.6-4.2-0.2-5.9,1.3L573,239.4
			c-2.4,2.2-2.6,6.1-0.4,8.5c2.2,2.4,6.1,2.6,8.5,0.4l23.5-21.5c2.4-2.2,2.6-6.1,0.4-8.5C604.3,217.5,603.4,216.9,602.4,216.6z"/>
		<path fill="#FAA31A" stroke="#000000" stroke-miterlimit="10" d="M512.6,209.6c3.2,1,6.5-0.8,7.5-3.9l9.6-30.3
			c1-3.2-0.8-6.5-3.9-7.5c-3.2-1-6.5,0.8-7.5,3.9l-9.6,30.3C507.7,205.2,509.4,208.6,512.6,209.6z"/>
		<path fill="#FAA31A" stroke="#000000" stroke-miterlimit="10" d="M434.2,201.9c0.7,3.2,3.9,5.3,7.2,4.6s5.3-3.9,4.6-7.2l-6.9-31.1
			c-0.5-2.2-2.1-3.8-4.1-4.4c-1-0.3-2-0.4-3.1-0.1c-3.2,0.7-5.3,3.9-4.6,7.2L434.2,201.9z"/>
		<path fill="#FAA31A" stroke="#000000" stroke-miterlimit="10" d="M369.7,239c2.2,2.4,6.1,2.6,8.5,0.4c2.4-2.2,2.6-6.1,0.4-8.5
			l-21.5-23.5c-0.7-0.8-1.6-1.4-2.6-1.7c-2-0.6-4.2-0.2-5.9,1.3c-2.4,2.2-2.6,6.1-0.4,8.5L369.7,239z"/>
		<path fill="#FAA31A" stroke="#000000" stroke-miterlimit="10" d="M302,293.8l30.3,9.6c3.2,1,6.5-0.8,7.5-3.9
			c1-3.2-0.8-6.5-3.9-7.5l-30.3-9.6c-3.2-1-6.5,0.8-7.5,3.9S298.8,292.8,302,293.8z"/>
		<path fill="#FAA31A" stroke="#000000" stroke-miterlimit="10" d="M336.8,370.7c-0.5-2.2-2.1-3.8-4.1-4.4c-1-0.3-2-0.4-3.1-0.1
			l-31.1,6.9c-3.2,0.7-5.3,3.9-4.6,7.2c0.7,3.2,3.9,5.3,7.2,4.6l31.1-6.9C335.4,377.1,337.5,373.9,336.8,370.7z"/>
		<path fill="#FAA31A" stroke="#000000" stroke-miterlimit="10" d="M367,432.2c-2-0.6-4.2-0.2-5.9,1.3L337.7,455
			c-2.4,2.2-2.6,6.1-0.4,8.5s6.1,2.6,8.5,0.4l23.5-21.5c2.4-2.2,2.6-6.1,0.4-8.5C368.9,433.1,368,432.5,367,432.2z"/>
	</g>
</g>
<g id="home" display="none">
	<g display="inline">
		<path fill="#FAA31A" d="M987,420.5L558,66.6c-26.6-21.9-65-22-91.6,0L37.1,420c-5.6,4.6-6.1,13.1-1,18.4l15.2,15.7
			c4.6,4.7,12.1,5.1,17.1,0.8l99.7-85.2c2.2-1.9,5.7-0.2,5.5,2.7c-0.1,2.2-0.2,4.5-0.2,6.7v446.7c0,64.4,52.7,117.2,117.2,117.2
			h443.3c64.4,0,117.2-52.7,117.2-117.2V379.2v-0.1c0-2.8,3.2-4.4,5.4-2.6L958,455.4c5.2,4.1,12.7,3.4,17.1-1.6l13.4-15.4
			C993.1,433.1,992.4,425,987,420.5z M623.5,908.7c0,14.2-11.7,25.9-25.9,25.9H426.4c-14.2,0-25.9-11.7-25.9-25.9V522.5
			c0-14.2,11.7-25.9,25.9-25.9h171.2c14.2,0,25.9,11.7,25.9,25.9V908.7z"/>
		<circle fill="#FAA31A" cx="435.4" cy="707" r="19.6"/>
	</g>
</g>
<g id="Recent" display="none">
	<g display="inline">
		<path fill="#FAA31A" d="M512,62.9C264,62.9,62.9,264,62.9,512S264,961.1,512,961.1S961.1,760,961.1,512S760,62.9,512,62.9z
			 M879,667c-10,23.6-22.3,46.3-36.7,67.6c-14.3,21.1-30.6,40.9-48.7,59s-37.9,34.4-59,48.7c-21.3,14.4-44,26.7-67.6,36.7
			c-24,10.2-49.1,18-74.7,23.2c-26.2,5.4-53.3,8.1-80.3,8.1s-54.1-2.7-80.3-8.1c-25.5-5.2-50.7-13-74.7-23.2
			c-23.6-10-46.3-22.3-67.6-36.7c-21.1-14.3-40.9-30.6-59-48.7s-34.4-37.9-48.7-59c-14.4-21.3-26.7-44-36.7-67.6
			c-10.2-24-18-49.1-23.2-74.7c-5.4-26.2-8.1-53.3-8.1-80.3c0-27.1,2.7-54.1,8.1-80.3c5.2-25.5,13-50.7,23.2-74.7
			c10-23.6,22.3-46.3,36.7-67.6c14.3-21.1,30.6-40.9,48.7-59s37.9-34.4,59-48.7c21.3-14.4,44-26.7,67.6-36.7
			c24-10.2,49.1-18,74.7-23.2c26.2-5.4,53.3-8.1,80.3-8.1c27.1,0,54.1,2.7,80.3,8.1c25.5,5.2,50.7,13,74.7,23.2
			c23.6,10,46.3,22.3,67.6,36.7c21.1,14.3,40.9,30.6,59,48.7s34.4,37.9,48.7,59c14.4,21.3,26.7,44,36.7,67.6
			c10.2,24,18,49.1,23.2,74.7c5.4,26.2,8.1,53.3,8.1,80.3c0,27.1-2.7,54.1-8.1,80.3C897,617.9,889.2,643,879,667z"/>
		<path fill="#FAA31A" d="M512,261.2c-6.7,0-13.2,2.7-18,7.4c-4.8,4.8-7.4,11.2-7.4,18v220.8l-63,167.9c-2.4,6.3-2.1,13.3,0.7,19.4
			c2.8,6.1,7.9,10.9,14.2,13.3c2.9,1.1,5.9,1.6,8.9,1.6c3.6,0,7.2-0.8,10.5-2.3c6.1-2.8,10.9-7.9,13.3-14.2l64.6-172.2
			c0-0.1,0-0.1,0.1-0.2c0-0.1,0.1-0.2,0.1-0.3s0.1-0.2,0.1-0.3s0.1-0.2,0.1-0.3s0.1-0.2,0.1-0.3s0.1-0.2,0.1-0.3s0.1-0.2,0.1-0.3
			s0.1-0.2,0.1-0.3s0.1-0.2,0.1-0.3s0.1-0.2,0.1-0.3s0.1-0.2,0.1-0.3s0-0.2,0.1-0.3c0-0.1,0-0.2,0.1-0.3c0-0.1,0-0.2,0.1-0.3
			c0-0.1,0-0.2,0.1-0.3c0-0.1,0-0.2,0.1-0.3c0-0.1,0-0.2,0.1-0.3c0-0.1,0-0.2,0-0.3s0-0.2,0-0.3s0-0.2,0-0.3s0-0.2,0-0.3
			s0-0.2,0-0.3s0-0.2,0-0.3s0-0.2,0-0.3s0-0.2,0-0.3s0-0.2,0-0.3s0-0.2,0-0.3s0-0.2,0-0.3s0-0.2,0-0.3s0-0.1,0-0.2V286.6
			c0-6.7-2.7-13.2-7.4-18C525.2,263.9,518.7,261.2,512,261.2z"/>
		<path fill="#FAA31A" d="M208.7,530c4.8-4.8,7.4-11.2,7.4-18c0-6.7-2.7-13.2-7.4-18c-4.8-4.8-11.2-7.4-18-7.4h-39.2
			c-6.7,0-13.2,2.7-18,7.4c-4.8,4.8-7.4,11.2-7.4,18c0,6.7,2.7,13.2,7.4,18c4.8,4.8,11.2,7.4,18,7.4h39.2
			C197.4,537.4,203.9,534.7,208.7,530z"/>
		<path fill="#FAA31A" d="M240.3,648.1c-6.5-1.7-13.4-0.8-19.3,2.5l-34,19.6c-5.8,3.4-10.1,8.9-11.8,15.4s-0.8,13.4,2.5,19.3
			c3.4,5.8,8.9,10.1,15.4,11.8c2.2,0.6,4.4,0.9,6.6,0.9c4.4,0,8.8-1.1,12.7-3.4l34-19.6c5.8-3.4,10.1-8.9,11.8-15.4
			c1.7-6.5,0.8-13.4-2.5-19.3C252.4,654.1,246.8,649.9,240.3,648.1z"/>
		<path fill="#FAA31A" d="M364,768.3c-5.8-3.4-12.8-4.3-19.3-2.5c-6.5,1.7-12.1,6-15.4,11.8l-19.6,34c-3.4,5.8-4.3,12.8-2.5,19.3
			c1.7,6.5,6,12.1,11.8,15.4c3.9,2.2,8.3,3.4,12.7,3.4c2.2,0,4.4-0.3,6.6-0.9c6.5-1.7,12.1-6,15.4-11.8l19.6-34
			c3.4-5.8,4.3-12.8,2.5-19.3C374.1,777.2,369.9,771.6,364,768.3z"/>
		<path fill="#FAA31A" d="M512,807.9c-6.7,0-13.2,2.7-18,7.4c-4.8,4.8-7.4,11.2-7.4,18v39.2c0,6.7,2.7,13.2,7.4,18
			c4.8,4.8,11.2,7.4,18,7.4c6.7,0,13.2-2.7,18-7.4c4.8-4.8,7.4-11.2,7.4-18v-39.2c0-6.7-2.7-13.2-7.4-18S518.7,807.9,512,807.9z"/>
		<path fill="#FAA31A" d="M694.6,777.6c-3.4-5.8-8.9-10.1-15.4-11.8s-13.4-0.8-19.3,2.5c-5.8,3.4-10.1,8.9-11.8,15.4
			s-0.8,13.4,2.5,19.3l19.6,34c3.4,5.8,8.9,10.1,15.4,11.8c2.2,0.6,4.4,0.9,6.6,0.9c4.4,0,8.8-1.1,12.7-3.4
			c5.8-3.4,10.1-8.9,11.8-15.4s0.8-13.4-2.5-19.3L694.6,777.6z"/>
		<path fill="#FAA31A" d="M836.9,670.3l-34-19.6c-5.8-3.4-12.8-4.3-19.3-2.5c-6.5,1.7-12.1,6-15.4,11.8c-3.4,5.8-4.3,12.8-2.5,19.3
			c1.7,6.5,6,12.1,11.8,15.4l34,19.6c3.9,2.2,8.3,3.4,12.7,3.4c2.2,0,4.4-0.3,6.6-0.9c6.5-1.7,12.1-6,15.4-11.8
			c3.4-5.8,4.3-12.8,2.5-19.3C847,679.2,842.8,673.7,836.9,670.3z"/>
		<path fill="#FAA31A" d="M872.5,486.6h-39.2c-6.7,0-13.2,2.7-18,7.4c-4.8,4.8-7.4,11.2-7.4,18c0,6.7,2.7,13.2,7.4,18
			c4.8,4.8,11.2,7.4,18,7.4h39.2c6.7,0,13.2-2.7,18-7.4s7.4-11.2,7.4-18c0-6.7-2.7-13.2-7.4-18C885.7,489.3,879.3,486.6,872.5,486.6
			z"/>
		<path fill="#FAA31A" d="M783.7,375.9c2.2,0.6,4.4,0.9,6.6,0.9c4.4,0,8.8-1.1,12.7-3.4l34-19.6c5.8-3.4,10.1-8.9,11.8-15.4
			s0.8-13.4-2.5-19.3c-3.4-5.8-8.9-10.1-15.4-11.8c-6.5-1.7-13.4-0.8-19.3,2.5l-34,19.6c-5.8,3.4-10.1,8.9-11.8,15.4
			s-0.8,13.4,2.5,19.3C771.6,369.9,777.2,374.1,783.7,375.9z"/>
		<path fill="#FAA31A" d="M705,177.8c-5.8-3.4-12.8-4.3-19.3-2.5s-12.1,6-15.4,11.8l-19.6,34c-3.4,5.8-4.3,12.8-2.5,19.3
			c1.7,6.5,6,12.1,11.8,15.4c3.9,2.2,8.3,3.4,12.7,3.4c2.2,0,4.4-0.3,6.6-0.9c6.5-1.7,12.1-6,15.4-11.8l19.6-34
			c3.4-5.8,4.3-12.8,2.5-19.3C715,186.7,710.8,181.1,705,177.8z"/>
		<path fill="#FAA31A" d="M512,126.1c-6.7,0-13.2,2.7-18,7.4c-4.8,4.8-7.4,11.2-7.4,18v39.2c0,6.7,2.7,13.2,7.4,18
			c4.8,4.8,11.2,7.4,18,7.4c6.7,0,13.2-2.7,18-7.4c4.8-4.8,7.4-11.2,7.4-18v-39.2c0-6.7-2.7-13.2-7.4-18
			C525.2,128.8,518.7,126.1,512,126.1z"/>
		<path fill="#FAA31A" d="M353.7,187.1c-3.4-5.8-8.9-10.1-15.4-11.8s-13.4-0.8-19.3,2.5c-5.8,3.4-10.1,8.9-11.8,15.4
			s-0.8,13.4,2.5,19.3l19.6,34c3.4,5.8,8.9,10.1,15.4,11.8c2.2,0.6,4.4,0.9,6.6,0.9c4.4,0,8.8-1.1,12.7-3.4
			c5.8-3.4,10.1-8.9,11.8-15.4c1.7-6.5,0.8-13.4-2.5-19.3L353.7,187.1z"/>
		<path fill="#FAA31A" d="M246.4,329.4l-34-19.6c-5.8-3.4-12.8-4.3-19.3-2.5c-6.5,1.7-12.1,6-15.4,11.8c-3.4,5.8-4.3,12.8-2.5,19.3
			c1.7,6.5,6,12.1,11.8,15.4l34,19.6c3.9,2.2,8.3,3.4,12.7,3.4c2.2,0,4.4-0.3,6.6-0.9c6.5-1.7,12.1-6,15.4-11.8
			c3.4-5.8,4.3-12.8,2.5-19.3C256.5,338.3,252.3,332.7,246.4,329.4z"/>
	</g>
</g>
<g id="share" display="none">
	<polygon display="inline" fill="#FFA400" points="943.1,157.1 768.6,26.1 768.6,97.1 254,97.1 254,685.1 378.8,685.1 378.8,217.9 
		770.1,217.9 770.1,293.6 	"/>
	<path display="inline" fill="#FFA400" d="M820.4,332.6H401.6v55.5h412.7c18,0,32.8,14.8,32.8,32.8v460.9c0,18-14.8,32.8-32.8,32.8
		H158.4c-18,0-32.8-14.8-32.8-32.8V420.9c0-18,14.8-32.8,32.8-32.8h73.7v-55.5h-79.8c-41.1,0-74.7,33.6-74.7,74.7v488
		c0,41.1,33.6,74.7,74.7,74.7h668c41.1,0,74.7-33.6,74.7-74.7v-488C895.1,366.2,861.5,332.6,820.4,332.6z"/>
</g>
<g id="Layer_3" display="none">
	<g display="inline">
		<path fill="#FFA400" d="M511,495.1L984.2,84.2c-11.3-28.4-39.1-48.6-71.4-48.6H109.4c-35,0-64.8,23.8-73.9,56L511,495.1z"/>
		<g>
			<polygon fill="#FFA400" points="989.6,870.9 989.6,119.3 590.7,465.6 			"/>
			<polygon fill="#FFA400" points="430.3,465.9 32.6,128.5 32.6,864.6 			"/>
			<path fill="#FFA400" d="M569.5,484l-58.3,50.6l-59.6-50.5l-419,422.2v11c0,42.3,34.6,76.8,76.8,76.8h803.3
				c42.3,0,76.8-34.6,76.8-76.8v-4.5L569.5,484z"/>
		</g>
	</g>
</g>
<g id="Layer_4" display="none">
	<path display="inline" fill="#FFA400" d="M934.1,275.6H89.6c-33.8,0-61.5-27.7-61.5-61.5l0,0c0-33.8,27.7-61.5,61.5-61.5h844.5
		c33.8,0,61.5,27.7,61.5,61.5l0,0C995.6,247.9,967.9,275.6,934.1,275.6z"/>
	<path display="inline" fill="#FFA400" d="M934.2,573.5H89.8c-33.8,0-61.5-27.7-61.5-61.5l0,0c0-33.8,27.7-61.5,61.5-61.5h844.5
		c33.8,0,61.5,27.7,61.5,61.5l0,0C995.7,545.8,968.1,573.5,934.2,573.5z"/>
	<path display="inline" fill="#FFA400" d="M934.2,878H89.8c-33.8,0-61.5-27.7-61.5-61.5l0,0c0-33.8,27.7-61.5,61.5-61.5h844.5
		c33.8,0,61.5,27.7,61.5,61.5l0,0C995.7,850.3,968.1,878,934.2,878z"/>
</g>
<g id="Ribon">
	<g>
		<g>
			<polygon fill="#FFA400" points="704.7,249.6 635.8,234.3 620.9,165.2 553.5,186.4 506.1,134 458.3,186.1 391.1,164.4 
				375.8,233.4 306.7,248.2 327.9,315.6 275.5,363 327.6,410.8 305.9,478 374.9,493.4 389.7,562.4 457.1,541.2 504.5,593.6 
				552.3,541.6 619.5,563.2 634.9,494.3 703.9,479.4 682.7,412 735.1,364.6 683.1,316.8 			"/>
			<path fill="#FFA400" d="M769.4,363.8l54.8-85.4L734,231.8l4.7-101.4l-101.4,4.7L590.7,45l-85.4,54.8L419.9,45l-46.6,90.1
				l-101.4-4.7l4.7,101.4l-90.1,46.6l54.8,85.4l-54.8,85.4l90.1,46.6l-4.7,101.4l101.4-4.7l46.6,90.1l85.4-54.8l85.4,54.8l46.6-90.1
				l101.4,4.7L734,495.8l90.1-46.6L769.4,363.8z M742.3,372.6l-47.3,42.8l19.1,60.8l3.5,11.3l-11.5,2.5l-62.3,13.4L630,565.6
				l-2.6,11.5l-11.2-3.6l-60.7-19.6l-43.1,47l-8,8.7l-7.9-8.8l-42.8-47.3l-60.8,19.1l-11.3,3.5l-2.5-11.5l-13.4-62.3l-62.2-13.8
				L292,486l3.6-11.2l19.6-60.7l-47-43.1l-8.7-8l8.8-7.9l47.3-42.8l-19.1-60.8l-3.5-11.3l11.5-2.5l62.3-13.4l13.8-62.2l2.6-11.5
				l11.2,3.6l60.7,19.6l43.1-47l8-8.7l7.9,8.8l42.8,47.3l60.8-19.1l11.3-3.5l2.5,11.5l13.4,62.3l62.2,13.8l11.5,2.6l-3.6,11.2
				l-19.6,60.7l47,43.1l8.7,8L742.3,372.6z"/>
		</g>
		<polygon fill="#FFA400" points="643.7,603.6 600.3,687.6 594.9,698.1 584.9,691.7 505.3,640.6 497.5,645.7 621,979 691.9,838 
			837.5,898.8 729.6,607.5 		"/>
		<polygon fill="#FFA400" points="425.7,691.7 415.7,698.1 410.3,687.6 366.9,603.6 308.9,606.3 200.4,898.8 346.1,838 416.9,979 
			513.2,719.2 488.2,651.6 		"/>
	</g>
</g>
</svg>
