<?xml version="1.0" encoding="utf-8"?>
<!-- Generator: Adobe Illustrator 18.1.1, SVG Export Plug-In . SVG Version: 6.00 Build 0)  -->
<svg version="1.1" id="Layer_1" xmlns="http://www.w3.org/2000/svg" xmlns:xlink="http://www.w3.org/1999/xlink" x="0px" y="0px"
	 viewBox="0 0 7663.6 7301" enable-background="new 0 0 7663.6 7301" xml:space="preserve">
<g id="Like_Button" display="none">
	<path display="inline" fill="#FFFFFF" d="M5843,183c-117.8-11.5-227.9-17.1-331.3-17.1c-828.2,0-1225.2,357.9-1680,899.8
		c-454.8-541.9-852-899.8-1680.1-899.8c-103.4,0-213.5,5.6-331.3,17.1C1103.7,253,275,909.1,174.1,2166.5v418.5
		c94,1203.4,1002.4,2687.8,3657.6,4550.2c2655.1-1862.4,3563.8-3346.8,3657.8-4550.2v-418.5C7388.4,909.1,6559.7,253,5843,183z"/>
</g>
<g id="Star">
	<polygon fill="#FAA31A" points="3866.7,399.5 4930.7,2555.4 7309.8,2901.1 5588.2,4579.2 5994.7,6948.8 3866.7,5830 1738.7,6948.8 
		2145.1,4579.2 423.5,2901.1 2802.7,2555.4 	"/>
</g>
</svg>
